<svg xmlns="http://www.w3.org/2000/svg" fill="none" viewBox="0 0 173 51" height="51" width="173">
<g clip-path="url(#clip0_5244_17550)">
<path fill="#50000B" d="M13.3681 1.87833C16.7794 0.50139 20.5554 0.060585 24.1947 0.582793C29.2602 1.28931 34.0107 3.95027 37.2891 7.87221C39.0255 9.93186 40.3617 12.3286 41.1919 14.8921C42.2209 18.0484 42.4659 21.4504 41.9375 24.7265C41.4683 27.6585 40.3602 30.4877 38.7052 32.9536C37.4396 34.8458 35.8592 36.5253 34.0576 37.9161C33.9024 38.0366 33.7658 38.1779 33.6291 38.3185C31.4619 40.5202 28.6105 42.0146 25.5824 42.6044C25.1946 42.6835 24.8037 42.7457 24.4128 42.8026C24.5411 43.3493 24.7269 43.8808 24.9397 44.4007C24.7984 44.5404 24.6571 44.6817 24.5158 44.823C24.1341 44.6096 23.5988 44.7294 23.3999 45.1333C23.1427 45.5787 23.456 46.2023 23.9636 46.2683C24.3744 46.3459 24.7323 46.0733 24.9896 45.7853C25.1539 46.4588 25.1009 47.1914 24.763 47.8042C24.0988 49.0476 22.8746 49.9008 21.5852 50.4038C21.4002 50.4637 21.2043 50.5911 21.0085 50.4982C19.6515 50.0259 18.3545 49.1796 17.6172 47.9171C17.2332 47.282 17.1495 46.5049 17.33 45.7907C17.5873 46.1109 18.0012 46.3689 18.4243 46.2522C18.8713 46.1447 19.1362 45.6017 18.9381 45.1847C18.7707 44.7724 18.2385 44.5957 17.8507 44.8054C17.6979 44.6671 17.5527 44.5205 17.4076 44.3738C17.7378 43.8063 18.0465 43.2234 18.2677 42.6037C17.4667 42.447 16.6849 42.2089 15.9016 41.9893C14.8726 42.3625 13.7268 42.427 12.6777 42.0968C11.0712 41.6199 9.77719 40.2683 9.34406 38.6525C6.11251 36.457 3.51683 33.3391 1.94944 29.7604C0.565587 26.6264 -0.0218973 23.1491 0.240743 19.734C0.512598 16.0747 1.78279 12.4976 3.87086 9.48107C6.20236 6.09055 9.54757 3.40809 13.3681 1.87833ZM18.6494 1.11729C14.9133 1.57652 11.3208 3.1132 8.39794 5.48234C5.10342 8.13101 2.66056 11.8241 1.53782 15.9012C0.541013 19.4867 0.55714 23.3457 1.58236 26.9228C2.81031 31.2656 5.54269 35.1584 9.19585 37.8063C9.10446 36.7926 9.35021 35.7627 9.86243 34.8865C9.61438 34.6515 9.37632 34.4065 9.15054 34.15C9.20506 34.1101 9.25959 34.0702 9.31488 34.031C9.54834 34.2345 9.80176 34.4142 10.0575 34.5908C10.5805 33.8475 11.3023 33.25 12.1325 32.8806C10.4868 31.5912 9.11828 29.9478 8.15834 28.0893C6.88738 25.6818 6.31909 22.9087 6.53873 20.1948C6.75376 17.3203 7.85807 14.5227 9.65201 12.2672C11.545 9.86735 14.2006 8.07725 17.1419 7.24172C19.5717 6.54672 22.1804 6.48912 24.6371 7.08045C27.1283 7.67638 29.4529 8.94196 31.3091 10.7075C32.8849 12.1989 34.1282 14.0419 34.9108 16.067C35.7425 18.2058 36.0512 20.5427 35.8185 22.8243C35.5489 25.549 34.4815 28.1838 32.7928 30.3379C30.9896 32.651 28.4838 34.4119 25.6869 35.3012C25.3805 35.3841 25.1101 35.5715 24.9258 35.8295C24.4512 36.4861 24.2662 37.3055 24.1894 38.0996C27.2604 38.7923 30.5396 38.661 33.5023 37.572C36.7062 35.1845 39.1683 31.8131 40.47 28.0356C41.5574 24.8924 41.8538 21.4811 41.3439 18.1958C40.8962 15.2968 39.8026 12.5014 38.1738 10.0632C35.8891 6.62889 32.5447 3.9088 28.7072 2.39132C25.5341 1.12497 22.0376 0.69261 18.6494 1.11729ZM18.8022 7.4698C16.0614 7.93211 13.4757 9.24684 11.4713 11.1698C9.35251 13.1849 7.88341 15.875 7.35506 18.7526C6.90043 21.167 7.09396 23.7005 7.92028 26.0151C8.82109 28.5778 10.4837 30.8624 12.6378 32.5174C12.7169 32.5703 12.7999 32.6671 12.9066 32.6187C13.7321 32.4098 14.6099 32.4106 15.4309 32.6418C16.754 33.0004 17.9121 33.9327 18.5319 35.1576C21.3741 35.712 24.3867 35.3573 27.0193 34.15C29.5136 33.0173 31.6585 31.1366 33.1153 28.8174C34.8378 26.1042 35.5704 22.7866 35.165 19.5996C34.8839 17.2965 34.0123 15.0702 32.663 13.1841C31.1785 11.0999 29.1212 9.42731 26.7705 8.41592C24.2823 7.3331 21.4747 7.00519 18.8022 7.4698ZM10.5689 34.9249C10.8301 35.0816 11.0927 35.2359 11.3584 35.3857C12.0119 34.4925 13.1001 33.9281 14.2121 33.9588C14.7489 33.9573 15.2711 34.1093 15.758 34.3274C16.3969 34.5924 17.0535 34.8135 17.724 34.9825C16.9384 33.7998 15.5484 33.0426 14.1253 33.0526C12.7254 33.0388 11.3569 33.7722 10.5689 34.9249ZM11.9052 35.6821C12.6885 36.0737 13.4818 36.4462 14.2897 36.7856C14.5231 36.8893 14.8027 36.9792 14.9179 37.2311C15.116 37.6004 14.8918 38.1119 14.4794 38.2048C14.1753 38.2985 13.9019 38.0958 13.6561 37.9483C12.9143 37.466 12.2116 36.9262 11.535 36.3564C11.2179 37.0898 11.2616 37.9652 11.6172 38.6771C11.9505 39.346 12.5603 39.8275 13.2092 40.1708C15.0784 41.1922 17.1403 41.8395 19.2376 42.1844C20.8941 42.4624 22.5874 42.4378 24.25 42.2312C25.9971 42.0093 27.7174 41.5239 29.2924 40.7291C30.4743 40.1401 31.5633 39.3752 32.5478 38.4974C29.886 39.2316 27.0531 39.3007 24.3529 38.7339C21.5238 38.158 18.8667 36.9331 16.42 35.4248C15.8563 35.113 15.3272 34.6907 14.6729 34.5924C13.64 34.395 12.5288 34.8373 11.9052 35.6821ZM10.3171 35.3204C9.8824 36.1452 9.7027 37.1059 9.84938 38.0297C10.0467 39.4412 10.9982 40.713 12.2892 41.312C13.1186 41.7121 14.0685 41.805 14.9709 41.6522C14.0232 41.2451 13.0625 40.8427 12.2093 40.2545C11.6387 39.8444 11.1633 39.2838 10.9176 38.6203C10.5897 37.7602 10.6457 36.7749 11.0297 35.9424C10.7932 35.7335 10.559 35.5224 10.3171 35.3204ZM17.8146 35.5792C18.3452 35.8718 18.8874 36.1413 19.4311 36.4078C19.554 36.2381 19.693 36.0814 19.8481 35.9417C19.1623 35.871 18.4889 35.719 17.8146 35.5792ZM21.2704 36.0023C20.7651 35.9985 20.2605 36.2381 19.9718 36.6582C21.1329 37.1919 22.3401 37.6266 23.5765 37.9522C23.6572 37.1497 23.8722 36.3441 24.323 35.666C23.32 35.8802 22.2956 35.9947 21.2704 36.0023ZM18.2546 44.0981C18.6102 44.1388 18.9719 44.2548 19.2261 44.5182C19.7775 45.045 19.7614 46.0333 19.1892 46.5379C18.839 46.8573 18.3337 46.9334 17.8799 46.8527C18.0258 47.5439 18.4566 48.136 18.9681 48.6075C19.5855 49.175 20.3273 49.6089 21.1229 49.8746C21.6206 49.7779 22.0798 49.5053 22.5175 49.2503C23.3892 48.6951 24.2193 47.9018 24.4343 46.8512C23.9444 46.9495 23.3976 46.8251 23.052 46.4503C22.5252 45.9074 22.5651 44.9221 23.1526 44.4383C23.4314 44.1941 23.8085 44.1035 24.1717 44.1027C24.0289 43.6995 23.8868 43.2948 23.7931 42.8771C22.1589 43.0422 20.5032 43.0145 18.8836 42.7242C18.7139 43.1988 18.5019 43.6581 18.2546 44.0981Z"></path>
<path fill="#50000B" d="M17.1784 2.35562C17.385 2.28881 17.5947 2.23122 17.8051 2.17285C17.6461 2.98765 17.4633 3.79861 17.3174 4.61494C17.4226 5.08877 17.5839 5.54801 17.7099 6.01723C17.5271 6.07098 17.3435 6.12551 17.1623 6.18387C17.021 5.76995 16.9204 5.34296 16.7937 4.92366C16.7607 4.77698 16.6416 4.67715 16.5449 4.57194C16.1002 4.11961 15.6702 3.65347 15.224 3.20268C15.1602 3.13203 15.0827 3.06598 15.0527 2.97229C15.2378 2.91162 15.426 2.86247 15.6118 2.80411C16.038 3.23263 16.4496 3.67574 16.8712 4.10886C16.9711 3.52445 17.087 2.94234 17.1784 2.35562Z"></path>
<path fill="#50000B" d="M25.9183 2.66992C26.6225 2.524 27.4074 2.89185 27.7023 3.55613C28.0747 4.40088 27.7921 5.4668 27.0979 6.06043C26.6463 6.45285 25.9698 6.52888 25.426 6.29389C24.8455 6.05966 24.463 5.45989 24.4454 4.84092C24.3885 3.91323 24.9468 2.85653 25.9183 2.66992ZM25.9882 3.19443C25.4522 3.36338 25.1526 3.91938 25.0605 4.44235C24.9714 4.91157 25.0874 5.47448 25.5128 5.74634C25.9175 6.02741 26.5081 5.92373 26.8145 5.54436C27.1985 5.07898 27.3966 4.41163 27.2015 3.82568C27.0449 3.3388 26.4774 3.03853 25.9882 3.19443Z"></path>
<path fill="#50000B" d="M20.998 3.35098C21.3466 3.20738 21.7567 3.5591 21.6615 3.92618C21.6039 4.29096 21.1055 4.46144 20.8382 4.20418C20.5495 3.97456 20.6447 3.4608 20.998 3.35098Z"></path>
<path fill="#50000B" d="M11.2676 4.69507C12.0601 4.28422 12.8519 3.8726 13.6436 3.46021C13.7197 3.60996 13.7957 3.75971 13.8709 3.90946C13.5622 4.06689 13.2566 4.22816 12.9502 4.38943C13.4394 5.32019 13.9162 6.25786 14.4123 7.18478C14.2411 7.28231 14.0675 7.37523 13.8932 7.46585C13.4033 6.53048 12.9156 5.59358 12.428 4.65668C12.1192 4.81948 11.8105 4.98229 11.4995 5.14049C11.4219 4.99227 11.3444 4.84329 11.2676 4.69507Z"></path>
<path fill="#50000B" d="M28.3789 7.35966C28.9956 6.30296 29.6199 5.25163 30.2412 4.198C30.8256 4.54051 31.4093 4.88608 31.9937 5.22936C31.9084 5.37373 31.8224 5.51811 31.7372 5.66248C31.3217 5.41367 30.9032 5.17099 30.4854 4.92525C30.3142 5.214 30.1475 5.50659 29.9693 5.79227C30.3587 6.03494 30.7626 6.25381 31.1505 6.50032C31.0652 6.63702 30.983 6.77525 30.9016 6.91348C30.5077 6.68463 30.1152 6.45348 29.7236 6.22079C29.4418 6.69769 29.1607 7.17535 28.8796 7.65225C28.7137 7.55242 28.5471 7.45412 28.3789 7.35966Z"></path>
<path fill="#50000B" d="M9.25391 6.11511C9.41287 6.00145 9.56877 5.88396 9.72697 5.76953C10.4558 6.74867 11.2076 7.70938 11.944 8.68315C11.7889 8.80141 11.6346 8.91968 11.481 9.03948C10.7368 8.06571 9.985 7.09809 9.25391 6.11511Z"></path>
<path fill="#50000B" d="M103.638 6.66199C104.758 6.43238 106.005 6.69118 106.858 7.47833C106.696 7.69796 106.515 7.90224 106.348 8.1188C105.858 7.76324 105.284 7.50444 104.675 7.46374C104.149 7.4238 103.573 7.50751 103.159 7.85846C102.758 8.19022 102.62 8.78308 102.802 9.26535C102.911 9.53644 103.133 9.74456 103.372 9.90276C104.174 10.4188 105.124 10.6584 105.901 11.2167C106.413 11.5807 106.821 12.126 106.915 12.758C107.022 13.4822 106.839 14.267 106.349 14.823C105.994 15.2347 105.492 15.4965 104.966 15.6148C103.755 15.889 102.432 15.5587 101.475 14.7716C101.635 14.5366 101.797 14.3016 101.951 14.0612C102.565 14.4406 103.243 14.7662 103.975 14.8138C104.457 14.8307 104.976 14.7547 105.368 14.4498C105.806 14.1096 105.963 13.5045 105.874 12.9738C105.792 12.5315 105.455 12.1905 105.093 11.9501C104.226 11.3788 103.164 11.1376 102.378 10.4396C101.58 9.74533 101.521 8.4375 102.125 7.6012C102.481 7.10357 103.047 6.78871 103.638 6.66199Z"></path>
<path fill="#50000B" d="M136.853 6.61623C137.776 6.50258 138.752 6.6961 139.516 7.23981C140.582 7.97705 141.157 9.25646 141.266 10.5213C141.396 11.9504 141.068 13.5063 140.048 14.5661C138.911 15.7741 136.948 16.0429 135.501 15.2588C134.363 14.659 133.648 13.4541 133.438 12.2092C133.204 10.8077 133.417 9.26874 134.276 8.10529C134.879 7.27744 135.837 6.73143 136.853 6.61623ZM136.572 7.57234C136.048 7.70903 135.577 8.02543 135.244 8.45011C134.774 9.03682 134.548 9.7825 134.473 10.5213C134.392 11.3414 134.465 12.1923 134.788 12.9572C135.017 13.5078 135.386 14.0093 135.882 14.3465C136.844 15.0199 138.278 14.9332 139.129 14.1153C139.679 13.5969 139.974 12.8635 140.108 12.1317C140.253 11.2708 140.242 10.3669 139.963 9.53369C139.758 8.92163 139.388 8.35181 138.858 7.97397C138.208 7.50168 137.342 7.37267 136.572 7.57234Z"></path>
<path fill="#50000B" d="M53.2155 6.74683C53.5634 6.74606 53.912 6.75067 54.2607 6.74146C54.2814 8.74428 54.2569 10.7471 54.273 12.7499C54.2753 13.2668 54.3913 13.8204 54.7699 14.1983C55.2974 14.7289 56.1076 14.8679 56.8249 14.7643C57.4162 14.6821 57.9845 14.3304 58.2456 13.7813C58.4399 13.3651 58.4537 12.8943 58.4683 12.4427C58.4837 10.5428 58.4629 8.64291 58.4798 6.74299C58.8239 6.74913 59.1672 6.74683 59.512 6.74683C59.512 8.05773 59.5112 9.36786 59.512 10.6788C59.4981 11.5496 59.5496 12.4258 59.4359 13.2921C59.3599 13.8903 59.1226 14.487 58.6703 14.9002C58.0214 15.5176 57.0891 15.7319 56.2151 15.6989C55.2767 15.6735 54.2945 15.3034 53.727 14.5247C53.3046 13.9518 53.227 13.2145 53.2201 12.5241C53.2101 10.5981 53.2178 8.67286 53.2155 6.74683Z"></path>
<path fill="#50000B" d="M62.8912 6.74699C63.2506 6.74699 63.6108 6.74622 63.9709 6.74853C65.3871 9.15222 66.7847 11.5682 68.2162 13.9627C68.2223 11.5575 68.2001 9.15222 68.1962 6.74699C68.5195 6.74776 68.8444 6.74315 69.1692 6.75314C69.1562 9.68211 69.1746 12.6119 69.1592 15.5408C68.7922 15.5331 68.4251 15.5424 68.0588 15.5324C66.658 13.1318 65.2496 10.7357 63.8327 8.3451C63.8366 10.7434 63.8573 13.1425 63.8534 15.5408C63.5324 15.5354 63.2114 15.537 62.8912 15.5378C62.8904 12.6072 62.8904 9.6775 62.8912 6.74699Z"></path>
<path fill="#50000B" d="M72.8406 15.5433C72.8291 12.6105 72.8291 9.67695 72.8413 6.74414C73.1908 6.75182 73.5417 6.74798 73.8919 6.74875C73.8927 9.67849 73.8927 12.609 73.8919 15.5387C73.5417 15.5387 73.1908 15.5349 72.8406 15.5433Z"></path>
<path fill="#50000B" d="M76.2246 6.74714C76.5917 6.74714 76.9595 6.74714 77.3266 6.74714C78.1837 9.33438 79.0353 11.9231 79.8947 14.5096C80.7709 11.9201 81.6525 9.33207 82.5372 6.74561C82.8766 6.74791 83.2176 6.74637 83.5578 6.74714C82.5287 9.67688 81.4966 12.6059 80.4699 15.5364C80.0651 15.5387 79.6597 15.5379 79.255 15.5371C78.2466 12.6066 77.2337 9.67765 76.2246 6.74714Z"></path>
<path fill="#50000B" d="M85.9519 6.75028C87.5439 6.74337 89.1359 6.75643 90.7286 6.74414C90.7394 7.03827 90.7371 7.33316 90.7317 7.62729C89.4853 7.62191 88.2381 7.62729 86.9918 7.62422C86.9894 8.59184 86.991 9.55869 86.991 10.5255C88.1644 10.5294 89.3378 10.5171 90.512 10.5317C90.5036 10.8105 90.5036 11.0892 90.5128 11.368C89.3394 11.3972 88.1652 11.3734 86.991 11.3803C86.9879 12.4639 86.9956 13.5474 86.9879 14.6303C88.2719 14.6433 89.5559 14.631 90.8407 14.6364C90.8392 14.9374 90.8392 15.2377 90.84 15.538C89.2104 15.5372 87.5808 15.5418 85.9512 15.5357C85.9558 12.6075 85.9542 9.67926 85.9519 6.75028Z"></path>
<path fill="#50000B" d="M93.6348 15.5315C93.6524 12.6017 93.6255 9.67123 93.6486 6.74072C94.6093 6.75915 95.5708 6.7292 96.5315 6.7676C97.1343 6.79909 97.7733 6.93885 98.2233 7.37121C98.9505 8.02935 99.1441 9.14211 98.8292 10.0491C98.5643 10.7947 97.8209 11.2786 97.0598 11.3914C97.5859 11.4644 97.9476 11.9021 98.1565 12.3583C98.6541 13.4089 99.111 14.4771 99.5872 15.5376C99.2232 15.5384 98.8599 15.533 98.4967 15.5422C98.0758 14.6476 97.7057 13.7291 97.2764 12.8375C97.0667 12.4174 96.801 11.9521 96.3172 11.8146C95.7835 11.6733 95.2237 11.7255 94.6784 11.7132C94.6776 12.988 94.6776 14.2628 94.6776 15.5369C94.3298 15.5361 93.9819 15.5415 93.6348 15.5315ZM94.6784 7.59162C94.6776 8.68518 94.6776 9.77951 94.6784 10.8731C95.3458 10.8631 96.0262 10.9184 96.6805 10.7517C97.0967 10.6473 97.4884 10.3946 97.7041 10.0153C98.0182 9.47848 97.999 8.76351 97.6627 8.2413C97.3785 7.822 96.8632 7.63155 96.374 7.60621C95.8096 7.57472 95.2429 7.59929 94.6784 7.59162Z"></path>
<path fill="#50000B" d="M109.859 6.74878C110.212 6.74878 110.564 6.74878 110.918 6.74878C110.918 9.67852 110.918 12.6083 110.918 15.5388C110.564 15.5388 110.212 15.5388 109.859 15.538C109.859 12.6083 109.859 9.67852 109.859 6.74878Z"></path>
<path fill="#50000B" d="M113.285 6.74925C115.379 6.74772 117.471 6.74848 119.565 6.74848C119.564 7.04031 119.564 7.3329 119.565 7.62472C118.696 7.62395 117.828 7.62625 116.96 7.62395C116.957 10.2619 116.959 12.9006 116.958 15.5385C116.609 15.5392 116.259 15.5331 115.912 15.5454C115.885 12.9044 115.915 10.2619 115.896 7.62088C115.026 7.63009 114.155 7.62241 113.285 7.62472C113.285 7.3329 113.285 7.04107 113.285 6.74925Z"></path>
<path fill="#50000B" d="M120.793 6.74795C121.198 6.74871 121.602 6.7418 122.008 6.75332C122.713 8.12565 123.444 9.48416 124.154 10.8542C124.89 9.50259 125.562 8.11567 126.27 6.74795C126.652 6.74641 127.034 6.74718 127.417 6.74795C126.506 8.48506 125.593 10.2214 124.682 11.9577C124.619 12.0606 124.623 12.182 124.624 12.2979C124.627 13.3777 124.624 14.4574 124.626 15.5372C124.276 15.5372 123.925 15.5418 123.577 15.5326C123.578 14.3768 123.595 13.2187 123.568 12.0637C122.664 10.2821 121.708 8.52499 120.793 6.74795Z"></path>
<path fill="#50000B" d="M144.188 6.74878C145.745 6.74878 147.302 6.74878 148.859 6.74878C148.858 7.0406 148.858 7.33319 148.859 7.62501C147.652 7.62578 146.445 7.62501 145.237 7.62501C145.237 8.59187 145.239 9.55795 145.237 10.5248C146.372 10.531 147.507 10.5171 148.643 10.531C148.635 10.812 148.635 11.0931 148.642 11.3734C147.507 11.3903 146.372 11.3757 145.237 11.3811C145.238 12.7672 145.237 14.1526 145.237 15.5388C144.887 15.5388 144.537 15.5388 144.188 15.5388C144.188 12.6083 144.188 9.67852 144.188 6.74878Z"></path>
<path fill="#50000B" d="M6.50873 8.99411C6.60626 8.32983 7.21218 7.80992 7.86494 7.72314C7.90334 7.88672 7.93482 8.05183 7.96477 8.21694C7.55622 8.28682 7.13308 8.55791 7.05014 8.98873C6.99408 9.25905 7.27131 9.5094 7.53549 9.43952C8.02774 9.33585 8.46164 9.00102 8.98154 9.01868C9.60435 9.02329 10.1089 9.6868 9.94686 10.2889C9.77561 10.937 9.1551 11.3894 8.51002 11.4907C8.47085 11.3271 8.43015 11.1636 8.38791 11.0008C8.78034 10.8917 9.23113 10.7136 9.3755 10.2943C9.50605 9.98937 9.24649 9.59925 8.90782 9.63612C8.39559 9.67912 7.96554 10.0416 7.44564 10.0547C6.90116 10.0777 6.41965 9.53244 6.50873 8.99411Z"></path>
<path fill="#50000B" d="M32.955 8.07262C33.2699 7.90059 33.6984 8.16707 33.6815 8.52724C33.6976 8.90815 33.2153 9.17002 32.9051 8.94808C32.5795 8.7584 32.6102 8.2239 32.955 8.07262Z"></path>
<path fill="#50000B" d="M35.743 10.2632C36.1047 10.1656 36.5017 10.1633 36.8519 10.3085C37.6091 10.608 38.076 11.5318 37.7996 12.3121C37.5354 13.0639 36.7974 13.5869 36.0287 13.7182C35.4389 13.8242 34.8045 13.5669 34.462 13.0739C34.1587 12.6692 34.0504 12.117 34.2163 11.6347C34.4436 10.952 35.0656 10.4575 35.743 10.2632ZM35.9749 10.803C35.4089 10.9743 34.8445 11.3844 34.707 11.9887C34.5665 12.5801 35.0856 13.2275 35.7023 13.176C36.3036 13.1261 36.8995 12.7843 37.2059 12.2575C37.4716 11.8067 37.3065 11.1816 36.8719 10.8998C36.6092 10.7255 36.2698 10.7209 35.9749 10.803Z"></path>
<path fill="#50000B" d="M16.5449 10.4852C16.5872 10.4806 16.6724 10.4714 16.7154 10.4668C17.1263 11.0228 17.5333 11.5842 17.9103 12.164C17.7184 12.21 17.5241 12.2469 17.3313 12.2899C17.5463 12.6739 17.8159 13.0241 18.0586 13.3912C18.4233 13.1262 18.7674 12.8313 19.0938 12.5211C18.9455 12.4435 18.792 12.3767 18.6483 12.2915C18.6645 12.1862 18.7689 12.1402 18.8434 12.081C19.2043 11.8322 19.5637 11.5803 19.9208 11.3254C20.0199 11.2532 20.1282 11.1856 20.2564 11.1848C19.9792 12.1141 19.6574 13.0287 19.3625 13.9525C18.4471 13.6407 17.4657 13.6162 16.5081 13.6077C15.6426 13.6346 14.7518 13.6584 13.9285 13.9556C13.619 13.0379 13.3172 12.1179 13.0254 11.194C13.2642 11.1795 13.4278 11.3814 13.619 11.4905C13.9823 11.7616 14.4054 11.9612 14.7241 12.2884C14.5697 12.3606 14.41 12.4243 14.2702 12.5234C14.5529 12.8444 14.8954 13.107 15.211 13.395C15.4683 13.0333 15.747 12.68 15.9451 12.2807C15.7547 12.2454 15.5642 12.2139 15.3769 12.1647C15.7393 11.5872 16.1602 11.0481 16.5449 10.4852Z"></path>
<path fill="#50000B" d="M24.8221 11.6206C25.0947 11.2343 25.3704 10.8503 25.6407 10.4625C25.898 10.4564 25.9748 10.7428 26.1176 10.9048C26.3941 11.3364 26.7512 11.7189 26.9746 12.1819C26.788 12.215 26.6022 12.2457 26.4171 12.2833C26.6152 12.6765 26.8994 13.0167 27.1336 13.3884C27.5068 13.135 27.8417 12.827 28.1742 12.5237C28.0221 12.4407 27.8655 12.3663 27.7088 12.2933C27.8639 12.0806 28.1097 11.9669 28.3147 11.811C28.6104 11.6129 28.8868 11.3856 29.194 11.2051C29.2317 11.2043 29.3054 11.2013 29.3422 11.1997C29.0474 12.119 28.7402 13.0344 28.443 13.9521C27.546 13.6464 26.5845 13.6196 25.6461 13.6073C24.7583 13.628 23.8498 13.6595 23.0028 13.9528C22.7033 13.0344 22.3984 12.1182 22.1035 11.199C22.3738 11.1836 22.5604 11.4255 22.7809 11.5469C23.1149 11.801 23.5204 11.9731 23.7961 12.2948C23.6387 12.3624 23.4828 12.4346 23.3315 12.516C23.6371 12.8025 23.9366 13.0989 24.2615 13.3631L24.3183 13.3585C24.5771 13.0282 24.7906 12.6665 25.034 12.3256C24.8651 12.2242 24.6639 12.2188 24.475 12.185C24.5456 11.9715 24.6961 11.8018 24.8221 11.6206Z"></path>
<path fill="#50000B" d="M4.37228 11.8287C4.542 11.5622 4.80694 11.3249 5.13716 11.3118C5.74154 11.2419 6.40275 11.801 6.23457 12.4384C6.52101 12.2963 6.84432 12.3616 7.1492 12.3824C7.49938 12.4146 7.85034 12.4392 8.20053 12.4753C8.08917 12.6488 7.98857 12.8285 7.89411 13.0121C7.4103 12.9875 6.92803 12.8953 6.44268 12.9145C6.13396 12.9337 6.01647 13.2594 5.88515 13.4882C6.33517 13.727 6.77981 13.9751 7.22753 14.2193C7.13537 14.389 7.04168 14.558 6.94415 14.7246C5.87286 14.1356 4.79772 13.5527 3.71875 12.9768C3.93147 12.5912 4.13498 12.1996 4.37228 11.8287ZM4.90985 11.9738C4.68944 12.1704 4.57579 12.453 4.42066 12.698C4.7647 12.8869 5.11028 13.0727 5.45663 13.2578C5.59179 12.9998 5.76765 12.7433 5.77994 12.4423C5.78838 12.0329 5.24467 11.7142 4.90985 11.9738Z"></path>
<path fill="#50000B" d="M39.1336 13.929C39.2104 14.1348 39.2795 14.3429 39.3501 14.5502C39.0383 14.945 38.6689 15.2928 38.3779 15.7037C38.8671 15.8066 39.3555 15.9149 39.8416 16.0362C39.8984 16.2328 39.963 16.4279 40.0267 16.6229C39.3547 16.4563 38.6812 16.295 38.0077 16.1361C37.5339 16.7082 37.0486 17.2711 36.5832 17.8509C36.4987 17.6451 36.4288 17.4339 36.3712 17.2204C36.7383 16.8111 37.0923 16.391 37.4456 15.9702C36.918 15.8358 36.3797 15.7421 35.8552 15.5977C35.7377 15.4242 35.7116 15.1961 35.6348 15.001C36.3666 15.1646 37.0908 15.3658 37.8257 15.5148C38.2466 14.9741 38.7081 14.4658 39.1336 13.929Z"></path>
<path fill="#50000B" d="M15.1148 14.3124C16.0194 14.1895 16.9379 14.1865 17.8456 14.2717C18.2465 14.3216 18.6597 14.3638 19.0298 14.5359C19.145 14.5704 19.2487 14.734 19.1074 14.81C18.8647 14.9713 18.5652 15.012 18.2841 15.0665C17.3649 15.2048 16.4272 15.2117 15.5018 15.1295C15.0964 15.0857 14.6824 15.0396 14.3038 14.8815C14.2009 14.8469 14.1418 14.7524 14.0742 14.6756C14.3553 14.4153 14.7546 14.3769 15.1148 14.3124Z"></path>
<path fill="#50000B" d="M23.306 14.5518C23.7 14.3552 24.15 14.3176 24.5808 14.2646C25.5745 14.1824 26.5852 14.1847 27.5689 14.3675C27.8262 14.4343 28.1518 14.4665 28.2885 14.7307C27.9782 14.9849 27.5666 15.0317 27.1849 15.0924C26.1636 15.2176 25.1237 15.2168 24.1047 15.0701C23.8075 15.0095 23.478 14.978 23.2307 14.7852C23.1271 14.7138 23.2231 14.5871 23.306 14.5518Z"></path>
<path fill="#50000B" d="M2.30273 17.1145C2.50394 16.4372 2.70898 15.7606 2.90481 15.0825C3.06762 15.1232 3.23042 15.1662 3.39246 15.2108C3.24425 15.7023 3.09449 16.193 2.94551 16.6837C3.2742 16.7674 3.59981 16.8603 3.92696 16.9509C4.05904 16.5048 4.16041 16.0494 4.32015 15.6132C4.47143 15.6608 4.62272 15.7069 4.77478 15.7529C4.6496 16.1961 4.52366 16.6384 4.39925 17.0815C4.7694 17.1775 5.13802 17.2835 5.5074 17.3841C5.64026 16.9018 5.78233 16.4226 5.91288 15.9396C6.07799 15.981 6.24233 16.0256 6.40744 16.0693C6.22774 16.7444 6.03729 17.4156 5.85298 18.0891C4.6711 17.7581 3.48538 17.4424 2.30273 17.1145Z"></path>
<path fill="#50000B" d="M14.2852 16.6484C15.6682 16.6484 17.0513 16.6492 18.4344 16.6484C18.9896 16.6584 19.5863 16.6477 20.0786 16.9433C20.643 17.2774 20.8834 17.9593 20.8865 18.5868C20.8949 21.1225 20.8857 23.6583 20.8911 26.1933C20.8926 26.3531 20.8849 26.5128 20.8627 26.671C20.706 26.4375 20.7575 26.1188 20.5647 25.9C20.2353 25.4569 19.6293 25.4162 19.1233 25.4008C17.5113 25.3962 15.8994 25.397 14.2882 25.4C14.2821 22.4833 14.2875 19.5659 14.2852 16.6484ZM14.8181 18.0377C14.8565 18.0799 14.9325 18.1651 14.9702 18.2074C14.9947 18.4892 14.9878 18.7741 14.9771 19.0575C14.994 19.1758 14.8565 19.2149 14.7951 19.2887C15.1476 19.2771 15.5392 19.3516 15.8549 19.1535C16.2204 18.9369 16.2373 18.298 15.8295 18.1168C15.51 17.987 15.1537 18.05 14.8181 18.0377ZM16.6819 18.0676C16.2143 18.2596 16.1682 19.0176 16.629 19.2449C17.0436 19.4822 17.6281 19.155 17.5966 18.6659C17.6434 18.192 17.0943 17.858 16.6819 18.0676ZM17.7125 18.0392C17.7747 18.1129 17.9214 18.1506 17.8991 18.2727C17.9007 18.5299 17.8838 18.7872 17.8546 19.0429C17.8592 19.1596 17.7463 19.2157 17.6787 19.2917C17.8569 19.2933 18.0374 19.2986 18.2132 19.261C18.1649 19.2334 18.0673 19.1781 18.0182 19.1504C17.9898 18.907 18.009 18.6612 18.0174 18.417C18.171 18.6881 18.2478 18.9938 18.3837 19.2733C18.4068 19.2702 18.4528 19.2649 18.4759 19.2626C18.6187 18.9584 18.7017 18.6298 18.8591 18.3326C18.866 18.606 18.8645 18.8801 18.8606 19.1543C18.8145 19.1873 18.7232 19.2518 18.6771 19.2841C18.9006 19.2917 19.1233 19.291 19.3467 19.2902C19.3068 19.2472 19.2262 19.1612 19.1855 19.1182C19.1578 18.8148 19.1494 18.5084 19.1586 18.2035C19.2008 18.1613 19.2853 18.0776 19.3283 18.0354C19.1624 18.0361 18.9973 18.0369 18.8322 18.0361C18.7347 18.2896 18.6364 18.543 18.5412 18.7972C18.4221 18.5453 18.31 18.2903 18.1994 18.0354C18.0366 18.0361 17.8746 18.0369 17.7125 18.0392ZM19.4243 18.0392C19.6677 18.1605 19.5894 18.4416 19.6032 18.6605C19.5894 18.8816 19.6677 19.1596 19.4281 19.2894C19.6524 19.2902 19.8766 19.2902 20.1009 19.2917C20.0609 19.2487 19.9811 19.1635 19.9404 19.1212C19.9173 18.8164 19.9204 18.5084 19.9388 18.2035C19.9795 18.1667 20.0617 18.0922 20.1032 18.0546C19.8774 18.03 19.6501 18.0315 19.4243 18.0392ZM15.5961 20.3507C15.6644 20.4275 15.8042 20.4659 15.8103 20.5834C15.8372 20.8753 15.8188 21.1686 15.8034 21.4604C15.7604 21.495 15.6728 21.5633 15.6298 21.5979C15.8111 21.6094 15.9931 21.6086 16.1736 21.5833C15.7865 21.4789 15.9846 21.0089 15.937 20.7224C16.1912 21.0027 16.4093 21.3138 16.6466 21.6086C16.6865 21.6163 16.7656 21.6317 16.8048 21.6386C16.8517 21.2485 16.7749 20.8484 16.8609 20.4644L17.0321 20.4114C16.8609 20.3123 16.6589 20.3553 16.4715 20.3538C16.8156 20.4736 16.6781 20.8668 16.7065 21.1425C16.4784 20.8875 16.2726 20.6141 16.0568 20.35C15.9032 20.3507 15.7496 20.35 15.5961 20.3507ZM17.0721 20.4368C17.3961 20.7508 17.3693 21.3053 17.6595 21.6302L17.7448 21.6102C17.9729 21.2001 17.9982 20.6572 18.383 20.3507C18.2086 20.3507 18.0335 20.3507 17.8592 20.35C17.9007 20.3868 17.9829 20.4606 18.0243 20.4974C17.9629 20.7255 17.8792 20.9467 17.7978 21.1686C17.678 20.9467 17.5981 20.7063 17.5129 20.4705C17.5582 20.4421 17.6503 20.3853 17.6956 20.3561C17.4714 20.3507 17.2472 20.3507 17.0237 20.3423C17.0352 20.3653 17.0598 20.4129 17.0721 20.4368ZM18.6087 20.3945C18.4237 20.5005 18.3684 20.7923 18.5304 20.9421C18.6602 21.0519 18.8245 21.1102 18.9543 21.2201C19.0434 21.3376 18.975 21.5349 18.8168 21.5372C18.6126 21.5196 18.545 21.2923 18.3922 21.1886C18.406 21.3161 18.429 21.442 18.4528 21.5679C18.6425 21.6202 18.8545 21.6724 19.0411 21.5787C19.2477 21.4935 19.336 21.217 19.22 21.0281C19.0972 20.8484 18.8476 20.8223 18.7147 20.6564C18.6371 20.5143 18.8238 20.3607 18.9543 20.4414C19.0518 20.5212 19.124 20.6272 19.2085 20.7201C19.1985 20.6011 19.1878 20.4821 19.1763 20.363C18.9889 20.3331 18.78 20.2839 18.6087 20.3945ZM15.4394 22.6784C15.4862 22.7084 15.5799 22.7683 15.6268 22.7982C15.6391 23.1246 15.6375 23.4517 15.6291 23.7781C15.5653 23.8196 15.5024 23.8611 15.4394 23.9025C15.6705 23.9225 15.9017 23.9202 16.1336 23.9194C16.0806 23.8572 16.0077 23.8096 15.9723 23.7351C15.9485 23.4256 15.9654 23.1154 15.9685 22.8059C16.0292 22.759 16.0898 22.7122 16.1505 22.6638C15.9132 22.6615 15.6759 22.6607 15.4394 22.6784ZM16.2058 22.6723C16.2657 22.7114 16.3248 22.7506 16.3855 22.7898C16.3986 23.1169 16.4178 23.4471 16.3824 23.7727C16.3371 23.805 16.2465 23.8687 16.2012 23.9002C16.5291 23.9348 16.8586 23.911 17.1873 23.924C17.2172 23.7973 17.2425 23.6706 17.264 23.5424C17.1304 23.719 16.9784 23.8764 16.7349 23.8096C16.728 23.5009 16.7134 23.1906 16.7342 22.8819C16.7311 22.7713 16.8524 22.7276 16.9146 22.6577C16.6781 22.6646 16.4416 22.6623 16.2058 22.6723ZM17.2863 22.67C17.347 22.7145 17.4077 22.7598 17.4683 22.8051C17.4722 23.1169 17.4883 23.4295 17.466 23.7413C17.4215 23.7843 17.3316 23.8718 17.2871 23.9156C17.6158 23.9194 17.9445 23.9194 18.2739 23.9179C18.2969 23.7935 18.3184 23.6683 18.3369 23.5439C18.2048 23.7182 18.055 23.8726 17.8147 23.8173C17.8047 23.507 17.7909 23.196 17.8108 22.8865C17.8055 22.7744 17.9268 22.7283 17.9898 22.6577C17.7548 22.6646 17.5205 22.6638 17.2863 22.67ZM18.1103 22.66C18.1879 22.7352 18.2885 22.7974 18.3284 22.905C18.4697 23.239 18.5888 23.5831 18.7193 23.9225C18.7554 23.9279 18.8291 23.9402 18.8652 23.9455C19.0111 23.5976 19.1294 23.2375 19.2891 22.8957C19.3344 22.7928 19.4358 22.7337 19.5149 22.66C19.3329 22.6646 19.1509 22.6638 18.9689 22.663C19.0165 22.6976 19.1102 22.7652 19.1578 22.7997C19.0772 23.0355 18.9981 23.272 18.9182 23.5078C18.8168 23.2743 18.7285 23.0355 18.6364 22.7982C18.6794 22.7644 18.7654 22.6961 18.8084 22.6623C18.5749 22.6638 18.3423 22.6661 18.1103 22.66Z"></path>
<path fill="#50000B" d="M22.1304 17.0685C22.572 16.6961 23.1794 16.663 23.7308 16.6507C25.1968 16.6461 26.6629 16.65 28.1289 16.6492C28.132 19.5636 28.1235 22.478 28.1327 25.3916C26.7159 25.407 25.299 25.3939 23.8813 25.3985C23.3369 25.4062 22.7663 25.3586 22.2494 25.5667C21.9246 25.6949 21.6842 26.0029 21.6381 26.3492C21.5974 26.4429 21.6374 26.598 21.5199 26.6418C21.5007 26.5435 21.4915 26.4452 21.4922 26.3454C21.4968 23.7858 21.4915 21.2262 21.4945 18.6666C21.4915 18.083 21.6589 17.4487 22.1304 17.0685ZM22.3193 18.0377C22.3846 18.0884 22.4453 18.1437 22.5013 18.2043C22.5121 18.4831 22.489 18.7619 22.4599 19.0391C22.4652 19.155 22.3546 19.2134 22.2878 19.291C22.4522 19.2902 22.6157 19.2902 22.7801 19.2917L22.7839 19.2364C22.7432 19.2142 22.6618 19.1681 22.6211 19.1458C22.5958 18.9024 22.6134 18.6574 22.625 18.4147C22.7739 18.6866 22.8523 18.9884 22.9859 19.2672C23.0089 19.2672 23.0558 19.2656 23.0788 19.2649C23.2209 18.96 23.3077 18.6313 23.4636 18.3326C23.4697 18.6067 23.4697 18.8809 23.4643 19.155C23.419 19.1873 23.3292 19.2526 23.2839 19.2848C23.5073 19.291 23.7308 19.291 23.9543 19.2902C23.9136 19.2472 23.8314 19.1612 23.7907 19.1182C23.7623 18.8125 23.7562 18.5046 23.7615 18.1982C23.8068 18.1582 23.8975 18.0776 23.9428 18.0377C23.7738 18.0369 23.6056 18.0369 23.4367 18.0361C23.3415 18.2826 23.2478 18.5299 23.1541 18.7772C23.0143 18.5438 22.9145 18.2903 22.8108 18.04C22.6465 18.0361 22.4829 18.0369 22.3193 18.0377ZM24.0403 18.0369C24.0787 18.0814 24.1563 18.1705 24.1947 18.2158C24.2139 18.5153 24.2146 18.8187 24.1939 19.1189C24.1524 19.1612 24.0687 19.2464 24.0272 19.2894C24.2561 19.2902 24.4849 19.2894 24.7146 19.291C24.6723 19.2487 24.5879 19.165 24.5456 19.1228C24.5226 18.8194 24.5241 18.513 24.5441 18.2097C24.5863 18.1659 24.67 18.0799 24.7115 18.0361C24.488 18.0361 24.2638 18.0361 24.0403 18.0369ZM24.7445 18.0415C24.819 18.093 24.8881 18.1513 24.9511 18.2166C24.9849 18.467 24.9718 18.7212 24.9641 18.973C24.9841 19.1143 24.9027 19.2142 24.7775 19.2702C24.9649 19.3025 25.1569 19.301 25.342 19.2564C25.2844 19.2357 25.1692 19.1942 25.1108 19.1727C25.0824 18.9216 25.0793 18.6682 25.0909 18.4155C25.2683 18.609 25.4249 18.821 25.5854 19.0299C25.6883 19.1566 25.7782 19.3294 25.9671 19.3248C25.9755 18.973 25.954 18.6205 25.9817 18.2696C25.9717 18.1498 26.1053 18.1106 26.1714 18.0369C25.9855 18.0361 25.8005 18.0369 25.6161 18.0407C25.6876 18.0899 25.7574 18.1413 25.8266 18.1951C25.8619 18.4055 25.8488 18.6213 25.855 18.834C25.6292 18.5722 25.4203 18.2957 25.1968 18.0315C25.0456 18.0354 24.895 18.0377 24.7445 18.0415ZM26.08 19.2902C26.2543 19.291 26.4286 19.2887 26.603 19.2833C26.5569 19.2541 26.4647 19.1942 26.4179 19.1643C26.4448 19.0806 26.4716 18.9968 26.4978 18.9131C26.6022 18.9108 26.7066 18.9093 26.8111 18.907C26.841 18.9953 26.8694 19.0836 26.8994 19.1727C26.8595 19.2004 26.7788 19.2556 26.7381 19.2833C26.9631 19.2925 27.1889 19.291 27.4147 19.2887C27.3379 19.2119 27.2358 19.1527 27.1997 19.0452C27.0568 18.7066 26.9616 18.3502 26.8134 18.0139L26.722 18.0215C26.4517 18.4124 26.4624 18.9746 26.08 19.2902ZM23.1825 20.3085C23.1787 20.4514 23.1756 20.5942 23.1748 20.737C23.2608 20.5827 23.3637 20.4375 23.5573 20.4306C23.5665 20.7754 23.5665 21.121 23.555 21.4658C23.5043 21.4973 23.4029 21.561 23.3522 21.5933C23.6064 21.6102 23.8614 21.6102 24.1156 21.5918C24.0618 21.5603 23.9535 21.4988 23.899 21.4681C23.8875 21.1218 23.8867 20.7754 23.8982 20.4298C24.0879 20.4337 24.1877 20.588 24.2837 20.7286C24.2845 20.5934 24.2791 20.4583 24.2684 20.3231C23.9082 20.353 23.5396 20.3838 23.1825 20.3085ZM24.3859 20.3554C24.4473 20.4037 24.5095 20.4521 24.5725 20.4997C24.5663 20.8131 24.5917 21.1271 24.5602 21.4397C24.5203 21.4804 24.4404 21.561 24.4005 21.6017C24.6286 21.6056 24.8566 21.6071 25.0855 21.5956C25.0409 21.5626 24.9519 21.495 24.9073 21.4612C24.9027 21.1663 24.8904 20.8707 24.9073 20.5765C24.8943 20.4629 25.0217 20.4222 25.0809 20.3492C24.849 20.35 24.617 20.3484 24.3859 20.3554ZM25.5309 20.4106C25.193 20.6034 25.107 21.111 25.3543 21.409C25.5785 21.6862 26.037 21.7054 26.2981 21.4697C26.5715 21.217 26.5784 20.7232 26.2965 20.4744C26.0907 20.2908 25.7667 20.2809 25.5309 20.4106ZM22.8692 22.6615C22.9682 22.7414 23.1011 22.8174 23.0589 22.9687C23.0235 23.2882 23.1057 23.6645 22.8722 23.9233C23.0389 23.9194 23.2101 23.9348 23.3722 23.8849C23.0112 23.8042 23.2078 23.3481 23.1863 23.0916C23.3599 23.3565 23.4175 23.6768 23.5742 23.9509C23.7838 23.6422 23.8591 23.2682 24.0142 22.9326C23.9712 23.2567 24.1647 23.6852 23.8614 23.9194C24.0802 23.9194 24.2983 23.9179 24.5164 23.9148C24.4765 23.8803 24.3959 23.8127 24.3559 23.7789C24.3022 23.4579 24.3244 23.1284 24.3114 22.8036C24.3774 22.7567 24.4435 22.7099 24.5103 22.6638C24.3352 22.6638 24.1609 22.6646 23.9865 22.6684C23.8936 22.9203 23.7961 23.1707 23.7032 23.4218C23.5757 23.173 23.472 22.9134 23.353 22.6607C23.1917 22.6638 23.0304 22.6638 22.8692 22.6615ZM24.5771 22.6631C24.6209 22.6999 24.7084 22.7721 24.753 22.809C24.7568 23.12 24.7737 23.4318 24.7491 23.7428C24.7 23.785 24.6024 23.8695 24.5533 23.9117C24.8973 23.9217 25.2421 23.921 25.587 23.9156C25.6077 23.7881 25.6269 23.6606 25.643 23.5339C25.5616 23.6184 25.491 23.7121 25.4096 23.7958C25.3059 23.8096 25.2014 23.8165 25.0978 23.8158C25.0893 23.6445 25.0863 23.4725 25.0863 23.3005C25.2537 23.2966 25.3681 23.4011 25.4541 23.5308C25.4587 23.3619 25.461 23.1929 25.4579 23.0248C25.3627 23.14 25.2452 23.2214 25.0901 23.2267C25.0863 23.0731 25.0855 22.9203 25.084 22.7683C25.2974 22.7183 25.4357 22.8535 25.5424 23.0186C25.5409 22.9019 25.5393 22.7859 25.5386 22.6707C25.2176 22.6608 24.8973 22.6646 24.5771 22.6631ZM25.6361 23.9171C25.7997 23.9187 25.9633 23.9187 26.1268 23.9164C26.0746 23.8695 26.0224 23.8242 25.9694 23.7797C25.9955 23.6983 26.0209 23.6184 26.0477 23.5378C26.1537 23.5385 26.2612 23.5393 26.368 23.5401C26.4309 23.6737 26.4394 23.8096 26.3357 23.9256C26.5454 23.9194 26.7558 23.9171 26.9662 23.9087C26.8779 23.8334 26.7696 23.7681 26.7366 23.6491C26.5968 23.3028 26.4901 22.9434 26.3426 22.6001C25.9694 22.9503 26.0401 23.5815 25.6361 23.9171Z"></path>
<path fill="#50000B" d="M11.2217 17.2247C11.4213 16.9352 11.912 16.926 12.0971 17.2347C12.2208 17.4927 12.5364 17.4866 12.7706 17.5749C12.7698 17.5058 12.7691 17.3683 12.7683 17.2992C12.9695 17.2984 13.1715 17.2984 13.3735 17.2984C13.3758 20.3802 13.3727 23.4628 13.375 26.5454C15.6036 26.5431 17.8322 26.5454 20.0608 26.5446C20.1629 26.8049 20.295 27.0929 20.5822 27.1897C20.9731 27.3225 21.4155 27.3225 21.8071 27.1928C22.0989 27.0998 22.2372 26.8088 22.3393 26.5446C24.5748 26.5408 26.8111 26.5515 29.0466 26.5392C29.0389 23.459 29.0451 20.3787 29.0435 17.2984C29.2447 17.2984 29.446 17.2984 29.6472 17.2977C29.6495 20.5814 29.6479 23.8652 29.6479 27.149C27.3356 27.1505 25.0233 27.1459 22.711 27.1505C22.337 27.8117 21.4992 27.9761 20.8026 27.8624C20.3442 27.811 19.9256 27.5445 19.6868 27.1497C17.3822 27.149 15.0783 27.1451 12.7737 27.1521C12.7683 26.9324 12.7691 26.7135 12.7691 26.4939C12.584 26.5692 12.3997 26.6475 12.22 26.7343C12.134 27.0031 11.8844 27.2381 11.5841 27.182C11.204 27.1421 10.9782 26.6606 11.1971 26.3449C11.3568 26.0731 11.7178 26.0331 11.9812 26.1691C12.2453 26.0593 12.5095 25.9471 12.7706 25.8296C12.7691 25.5893 12.7691 25.3497 12.7691 25.1108C12.5901 25.1646 12.412 25.2191 12.2354 25.2782C12.1255 25.5225 11.8775 25.7298 11.5941 25.6645C11.1978 25.6115 10.9982 25.0816 11.2624 24.7806C11.4474 24.5303 11.8114 24.5264 12.0549 24.6931C12.2937 24.6247 12.5302 24.5518 12.7683 24.4803C12.7698 24.2323 12.7691 23.9842 12.7698 23.7362C12.5878 23.7661 12.4058 23.7961 12.2246 23.8283C12.0894 24.0342 11.8598 24.2139 11.598 24.1494C11.2009 24.0918 11.0097 23.5588 11.2769 23.2608C11.4828 22.992 11.8836 23.0182 12.1209 23.2286C12.3375 23.1948 12.5533 23.1572 12.7691 23.1195C12.7691 22.8669 12.7691 22.6134 12.7698 22.3608C12.5794 22.3669 12.3897 22.3738 12.2 22.3831C11.9981 22.6618 11.558 22.7486 11.3146 22.4752C11.0143 22.1888 11.1909 21.6236 11.6003 21.5583C11.8299 21.493 12.0196 21.6527 12.1977 21.7695C12.3882 21.7779 12.5786 21.761 12.7691 21.7549C12.7691 21.4807 12.7691 21.2073 12.7706 20.9339C12.5679 20.9224 12.3651 20.9132 12.1624 20.9078C12.0103 21.0514 11.8107 21.1789 11.591 21.1205C11.2347 21.0606 11.0312 20.6099 11.2278 20.305C11.386 20.0085 11.8314 19.9371 12.0664 20.1836C12.2446 20.3818 12.5341 20.2927 12.7691 20.3257C12.7691 20.0731 12.7691 19.8212 12.7698 19.57C12.5471 19.5286 12.326 19.4863 12.1025 19.4526C11.9366 19.5716 11.7277 19.6699 11.5227 19.5908C11.1886 19.4956 11.0304 19.0548 11.2301 18.7706C11.4052 18.4757 11.8752 18.425 12.0902 18.7015C12.2369 18.9349 12.5349 18.8958 12.7698 18.9518C12.7691 18.7038 12.7691 18.4557 12.7683 18.2069C12.5287 18.1401 12.2953 18.0518 12.0526 17.998C11.866 18.0387 11.6778 18.1609 11.4828 18.0741C11.1403 17.9689 10.9959 17.5043 11.2217 17.2247Z"></path>
<path fill="#50000B" d="M15.3141 18.1297C15.8186 18.0821 15.9 18.794 15.6389 19.0958C15.5698 19.1849 15.3502 19.2532 15.3248 19.0966C15.291 18.7756 15.3148 18.4515 15.3141 18.1297Z"></path>
<path fill="#50000B" d="M16.8331 18.1364C17.0274 18.0258 17.1825 18.2677 17.2063 18.4343C17.2417 18.6778 17.2824 18.9896 17.0973 19.1831C16.8953 19.3129 16.7172 19.0687 16.6895 18.889C16.6457 18.6417 16.615 18.3122 16.8331 18.1364Z"></path>
<path fill="#50000B" d="M26.5254 18.7891C26.5699 18.6701 26.616 18.5526 26.6636 18.4351C26.702 18.5572 26.7412 18.68 26.7804 18.8029C26.6951 18.7983 26.6099 18.7937 26.5254 18.7891Z"></path>
<path fill="#50000B" d="M36.7559 19.1296C37.9769 19.0344 39.1964 18.9215 40.419 18.8347C40.4589 19.509 40.5265 20.1817 40.5772 20.8552C40.4098 20.869 40.2431 20.8821 40.0765 20.8959C40.0373 20.4144 39.9966 19.9329 39.9605 19.4506C39.6257 19.4744 39.2916 19.509 38.956 19.522C38.9729 19.9805 39.0259 20.4367 39.0582 20.8936C38.8938 20.9059 38.7303 20.9197 38.5675 20.9312C38.5337 20.4774 38.4945 20.0243 38.4576 19.5712C37.9055 19.6211 37.3533 19.6633 36.8004 19.704C36.7858 19.5121 36.7712 19.3208 36.7559 19.1296Z"></path>
<path fill="#50000B" d="M1.93928 18.9006C3.14804 19.3837 4.35219 19.879 5.55941 20.3667C5.5525 20.5686 5.54405 20.7706 5.53484 20.9733C4.2969 21.3466 3.05742 21.7152 1.81717 22.0815C1.81794 21.8803 1.81871 21.6791 1.81641 21.4787C2.81014 21.1922 3.80848 20.9227 4.80221 20.637C3.86147 20.2184 2.88156 19.8898 1.92546 19.505C1.93006 19.3038 1.93467 19.1018 1.93928 18.9006Z"></path>
<path fill="#50000B" d="M25.7492 20.4459C25.8652 20.3799 25.9988 20.4613 26.0525 20.5688C26.1639 20.7846 26.1616 21.0418 26.124 21.2768C26.1086 21.4058 26.021 21.5425 25.8751 21.5379C25.6601 21.4872 25.5964 21.2423 25.5772 21.0518C25.5641 20.8437 25.5641 20.5826 25.7492 20.4459Z"></path>
<path fill="#50000B" d="M37.8144 22.4692C38.7091 22.2365 39.8264 22.5675 40.2488 23.4399C40.5683 24.1203 40.3594 25.0211 39.735 25.455C38.9072 26.0095 37.6877 25.8336 37.0019 25.1271C36.5734 24.6702 36.4912 23.9567 36.7285 23.3892C36.9182 22.9331 37.3383 22.589 37.8144 22.4692ZM38.0555 23.0191C37.5541 23.0843 37.1094 23.5129 37.1171 24.0343C37.0779 24.5227 37.4934 24.9029 37.9219 25.0495C38.4011 25.2254 38.9778 25.263 39.4256 24.9843C39.9048 24.694 40.0422 23.9652 39.6774 23.5321C39.2919 23.0705 38.6277 22.9369 38.0555 23.0191Z"></path>
<path fill="#50000B" d="M26.0742 23.4298C26.1165 23.3031 26.161 23.1779 26.2055 23.052C26.2455 23.1749 26.2862 23.2977 26.3284 23.4206C26.2647 23.4229 26.138 23.4275 26.0742 23.4298Z"></path>
<path fill="#50000B" d="M60.1768 23.3294C62.8747 23.0484 65.7061 23.8324 67.7658 25.6256C68.9476 26.6401 69.8638 27.9617 70.4006 29.4247C71.4112 32.1901 71.1094 35.4163 69.5643 37.9282C68.4807 39.7068 66.7759 41.0845 64.8253 41.8079C61.7389 42.9568 58.0788 42.5498 55.3879 40.6222C53.5509 39.3244 52.2239 37.3315 51.7363 35.136C51.095 32.2861 51.7332 29.1336 53.5824 26.8482C55.1782 24.8369 57.6295 23.5721 60.1768 23.3294ZM60.4034 24.2548C59.3835 24.3777 58.396 24.7724 57.5865 25.4068C56.5705 26.1947 55.8448 27.3051 55.3741 28.4901C54.729 30.1212 54.517 31.8998 54.6084 33.6446C54.6852 35.1114 54.9793 36.5858 55.6267 37.9129C56.172 39.0364 57.0021 40.0439 58.0842 40.6852C59.2653 41.3986 60.696 41.6305 62.056 41.4685C63.1158 41.3449 64.1449 40.9294 64.9735 40.2536C65.9749 39.448 66.6845 38.3291 67.1422 37.1388C67.7911 35.4447 67.9808 33.6 67.8533 31.7992C67.7466 30.3232 67.4117 28.8426 66.7106 27.5309C66.1231 26.432 65.2446 25.4651 64.131 24.8861C62.9968 24.2832 61.6705 24.1028 60.4034 24.2548Z"></path>
<path fill="#50000B" d="M119.619 23.3369C122.374 23.0305 125.278 23.8407 127.361 25.6991C128.477 26.6814 129.347 27.9385 129.876 29.3285C130.976 32.2352 130.609 35.6718 128.867 38.2536C127.611 40.1305 125.648 41.5044 123.471 42.0857C120.458 42.9044 117.049 42.323 114.576 40.3824C112.647 38.8941 111.366 36.6102 111.082 34.1912C110.731 31.4135 111.564 28.4676 113.479 26.3988C115.051 24.6601 117.294 23.5765 119.619 23.3369ZM119.92 24.2539C119.061 24.3583 118.223 24.6486 117.499 25.1224C116.44 25.8021 115.647 26.8342 115.116 27.9631C114.43 29.4222 114.132 31.041 114.103 32.6461C114.082 34.3133 114.31 36.0082 114.972 37.5487C115.48 38.7329 116.278 39.8187 117.36 40.536C118.389 41.2287 119.642 41.5436 120.876 41.5159C122.062 41.5021 123.256 41.1511 124.223 40.4523C125.316 39.6728 126.097 38.5209 126.596 37.2868C127.285 35.5773 127.492 33.702 127.371 31.8712C127.271 30.3691 126.935 28.86 126.219 27.5261C125.64 26.4425 124.778 25.4895 123.686 24.9082C122.543 24.29 121.201 24.1003 119.92 24.2539Z"></path>
<path fill="#50000B" d="M2.0332 23.8794C3.24427 23.7081 4.45302 23.52 5.66332 23.3472C5.69096 23.5392 5.71861 23.7311 5.74626 23.9231C4.5375 24.1051 3.32874 24.2871 2.11845 24.4599C2.09003 24.2664 2.06162 24.0721 2.0332 23.8794Z"></path>
<path fill="#50000B" d="M71.862 23.5804C74.5783 23.5812 77.2946 23.5797 80.0116 23.5812C80.01 23.8062 80.01 24.0312 80.0093 24.2562C79.4249 24.3768 78.8404 24.4989 78.2553 24.6141C78.1078 24.6517 77.9327 24.6748 77.8406 24.8099C77.8045 24.985 77.9304 25.1317 78.0172 25.2691C79.4241 27.2758 80.8225 29.2878 82.231 31.2937C82.2839 31.435 82.4122 31.3583 82.4598 31.26C83.9043 29.241 85.3527 27.2251 86.7941 25.2046C86.9162 25.0687 86.9815 24.8191 86.7527 24.7539C86.1368 24.5404 85.4901 24.4213 84.8597 24.2555C84.8581 24.0304 84.8581 23.8054 84.8581 23.5804C87.0414 23.5797 89.2247 23.5804 91.4088 23.5804C91.408 23.8062 91.408 24.032 91.4065 24.2585C90.6738 24.4613 89.9166 24.5818 89.2024 24.846C88.5788 25.0772 88.1887 25.6362 87.7986 26.1392C86.1821 28.1751 84.5648 30.2102 82.9505 32.2475C84.875 34.7787 86.7949 37.313 88.7179 39.8457C89.0281 40.2965 89.4067 40.7304 89.9358 40.9223C90.5663 41.1527 91.2291 41.2779 91.8726 41.4661C91.8726 41.6888 91.8726 41.9122 91.8764 42.1357C89.1594 42.1449 86.4416 42.1365 83.7254 42.1395C83.7246 41.9161 83.7246 41.6926 83.7231 41.4699C84.4073 41.3094 85.11 41.2203 85.7843 41.0214C86.0246 40.9431 85.8987 40.6712 85.7896 40.533C84.4549 38.6461 83.1141 36.7639 81.7763 34.8793C81.549 34.5691 81.3432 34.2427 81.0944 33.9493C79.656 35.873 78.2729 37.8405 76.856 39.7812C76.6456 40.0937 76.3876 40.3763 76.2156 40.7119C76.1426 40.9116 76.3983 40.9861 76.5389 41.0345C77.1095 41.1896 77.6877 41.3132 78.2591 41.4668C78.2599 41.6918 78.2599 41.9176 78.2506 42.1426C76.0704 42.1365 73.891 42.1388 71.7115 42.1411C71.7085 41.9161 71.7085 41.6911 71.71 41.4661C72.3267 41.3148 72.9441 41.1665 73.5569 40.9999C74.0469 40.8663 74.503 40.5967 74.8263 40.2005C76.7132 37.8475 78.5839 35.4799 80.4746 33.1299C78.7437 30.8084 76.9904 28.5038 75.2503 26.1884C74.864 25.6885 74.5215 25.0987 73.9094 24.846C73.2505 24.5795 72.5455 24.4497 71.8636 24.2555C71.8613 24.0304 71.8613 23.8054 71.862 23.5804Z"></path>
<path fill="#50000B" d="M94.4004 23.5821C99.0765 23.5782 103.753 23.5813 108.429 23.5805C108.429 25.1287 108.429 26.6761 108.429 28.2236C108.17 28.2243 107.912 28.2243 107.654 28.2236C107.36 27.2828 107.063 26.3429 106.768 25.4029C106.676 25.1164 106.556 24.8139 106.302 24.6326C106.075 24.4706 105.784 24.4583 105.515 24.4598C103.614 24.466 101.713 24.4537 99.8122 24.466C99.8198 27.1269 99.8129 29.7871 99.8152 32.4473C101.153 32.4481 102.491 32.4473 103.829 32.4481C104.216 32.4404 104.643 32.4957 104.988 32.2761C105.288 32.0856 105.425 31.7385 105.52 31.4121C105.665 30.916 105.808 30.4191 105.954 29.923C106.209 29.9246 106.465 29.9246 106.721 29.9192C106.737 31.9819 106.723 34.0447 106.728 36.1074C106.47 36.1081 106.213 36.1081 105.957 36.1104C105.795 35.4938 105.646 34.874 105.489 34.2566C105.421 33.9871 105.303 33.7121 105.072 33.5432C104.828 33.355 104.509 33.3251 104.213 33.3235C102.747 33.3228 101.281 33.3235 99.8152 33.3235C99.8168 35.6021 99.8122 37.8806 99.8175 40.1591C99.7914 40.5108 100.01 40.8641 100.364 40.9439C101.139 41.1329 101.924 41.2857 102.702 41.4662C102.702 41.6873 102.703 41.9093 102.71 42.132C99.9412 42.1496 97.1712 42.1343 94.4019 42.1396C94.4012 41.9146 94.4012 41.6904 94.4012 41.4669C94.9848 41.3287 95.5669 41.1859 96.1498 41.0453C96.4193 40.9716 96.7181 40.9071 96.9154 40.6921C97.0782 40.5093 97.0821 40.2482 97.0852 40.0163C97.0821 35.205 97.0875 30.393 97.0829 25.581C97.1136 25.2285 96.8916 24.893 96.5499 24.7977C95.8434 24.5812 95.1161 24.4376 94.4012 24.2525C94.4012 24.029 94.4012 23.8055 94.4004 23.5821Z"></path>
<path fill="#50000B" d="M132.614 23.5806C135.024 23.5806 137.436 23.5806 139.846 23.5806C141.312 23.5814 142.812 23.5583 144.231 23.9815C145.635 24.3885 146.816 25.4682 147.366 26.8198C147.878 28.0324 147.842 29.4746 147.209 30.6358C146.565 31.8499 145.378 32.6931 144.106 33.1508C143.787 33.2775 143.444 33.3298 143.133 33.4741C143.792 33.8266 144.241 34.4395 144.702 35.0077C146.057 36.7326 147.362 38.495 148.689 40.2421C148.993 40.6453 149.437 40.941 149.934 41.0439C150.574 41.1798 151.211 41.3257 151.85 41.4655C151.85 41.6882 151.85 41.9116 151.855 42.1351C150.333 42.142 148.811 42.1436 147.289 42.1343C146.791 42.1328 146.445 41.725 146.177 41.3572C144.735 39.3436 143.296 37.3293 141.857 35.3142C141.424 34.7328 140.945 34.0785 140.193 33.9157C139.482 33.7744 138.751 33.8681 138.033 33.8382C138.027 35.95 138.028 38.0619 138.032 40.1738C138.009 40.5293 138.241 40.8757 138.597 40.9494C139.367 41.1345 140.145 41.2888 140.918 41.4662C140.917 41.6912 140.917 41.9163 140.915 42.1413C138.15 42.139 135.385 42.1374 132.619 42.142C132.612 41.9163 132.612 41.6912 132.615 41.4662C133.331 41.2819 134.061 41.1452 134.768 40.9225C135.097 40.8288 135.316 40.5094 135.293 40.1692C135.299 35.3057 135.296 30.4407 135.295 25.5773C135.32 25.2294 135.108 24.893 134.766 24.7986C134.059 24.5828 133.331 24.4376 132.615 24.2541C132.613 24.0291 132.613 23.8048 132.614 23.5806ZM138.029 24.4614C138.033 27.2975 138.021 30.1335 138.036 32.9696C138.843 32.9565 139.65 32.9727 140.457 32.9611C141.258 32.9481 142.079 32.8229 142.793 32.4412C143.347 32.1487 143.811 31.6894 144.1 31.1319C144.505 30.3724 144.627 29.4969 144.631 28.6453C144.635 27.7222 144.384 26.7799 143.823 26.0373C143.177 25.1703 142.146 24.6312 141.077 24.5213C140.065 24.4154 139.045 24.4783 138.029 24.4614Z"></path>
<path fill="#50000B" d="M153.345 23.5805C155.704 23.5805 158.063 23.5805 160.422 23.5805C162.17 23.5828 163.94 23.5344 165.659 23.9138C167.072 24.2041 168.423 24.8307 169.521 25.773C171.392 27.3519 172.436 29.7587 172.603 32.1747C172.761 34.5169 172.275 36.9966 170.813 38.8827C169.958 39.9878 168.787 40.8303 167.496 41.3517C166.125 41.8854 164.644 42.0505 163.184 42.1181C159.907 42.1673 156.628 42.1227 153.35 42.1427C153.343 41.9161 153.342 41.6911 153.346 41.4654C154.042 41.2926 154.745 41.142 155.436 40.9454C155.788 40.861 156.054 40.5384 156.025 40.169C156.032 35.3547 156.025 30.5404 156.029 25.7254C156.027 25.4812 156.025 25.2024 155.846 25.0143C155.658 24.8223 155.387 24.7562 155.137 24.6894C154.539 24.5473 153.944 24.3961 153.345 24.2555C153.344 24.0305 153.344 23.8055 153.345 23.5805ZM158.762 24.4606C158.762 29.774 158.762 35.0875 158.762 40.401C158.769 40.6275 158.755 40.884 158.901 41.0745C159.068 41.2649 159.345 41.2542 159.579 41.2641C160.5 41.2603 161.422 41.2711 162.344 41.2565C163.521 41.2227 164.723 41.1098 165.82 40.6498C166.953 40.1806 167.847 39.2513 168.43 38.1877C169.124 36.9137 169.415 35.46 169.508 34.0231C169.593 32.5448 169.507 31.0442 169.131 29.6082C168.806 28.3771 168.234 27.186 167.341 26.266C166.578 25.4697 165.575 24.9083 164.489 24.704C162.603 24.3323 160.67 24.5013 158.762 24.4606Z"></path>
<path fill="#50000B" d="M2.55273 26.6361C3.71004 26.2398 4.86197 25.8282 6.01697 25.4258C6.08302 25.5993 6.14676 25.7744 6.20973 25.9503C5.53854 26.7605 4.88194 27.583 4.2046 28.3878C5.04551 28.0453 5.8918 27.7089 6.74038 27.3825C6.79721 27.553 6.85788 27.7212 6.91932 27.8901C5.78428 28.3379 4.63773 28.7564 3.505 29.211C3.4282 29.0359 3.36139 28.857 3.30226 28.6758C3.96884 27.8756 4.62621 27.0669 5.28972 26.2636C4.43652 26.5516 3.59024 26.8603 2.73781 27.1506C2.67561 26.9793 2.6134 26.8073 2.55273 26.6361Z"></path>
<path fill="#50000B" d="M36.0146 26.6116C37.1281 27.1069 38.2378 27.6122 39.349 28.1137C39.1171 28.6052 38.9597 29.142 38.6248 29.5774C38.1933 30.1088 37.241 29.9191 36.9722 29.3148C36.9108 29.1781 36.9077 29.0268 36.8939 28.8809C36.2695 29.0706 35.6037 28.9515 34.9609 28.9869C35.0416 28.8018 35.123 28.6175 35.1982 28.4309C35.6774 28.394 36.1605 28.4516 36.6381 28.394C36.9576 28.3579 37.0575 28.0092 37.1665 27.7597C36.7011 27.5585 36.2434 27.3427 35.7803 27.1384C35.8587 26.9633 35.9362 26.7874 36.0146 26.6116ZM37.3608 28.8018C37.3854 29.2096 37.9391 29.4684 38.2578 29.2073C38.4651 28.9999 38.5473 28.7073 38.6778 28.4516C38.33 28.2742 37.9682 28.1275 37.6142 27.9647C37.5059 28.2335 37.3447 28.5015 37.3608 28.8018Z"></path>
<path fill="#50000B" d="M20.4934 29.6465C20.7038 29.367 20.8812 29.0613 21.1108 28.7971C21.3067 28.7365 21.3758 28.9469 21.4741 29.0667C21.7828 29.5267 22.1291 29.9614 22.4225 30.4306C22.3342 30.6103 22.037 30.5289 21.8703 30.6226C22.1199 30.9881 22.3434 31.3736 22.6321 31.7107C22.967 31.4243 23.311 31.1486 23.6366 30.8522C23.49 30.7546 23.3287 30.6817 23.1697 30.608C23.48 30.2754 23.9016 30.0727 24.2564 29.7924C24.4276 29.6956 24.572 29.4944 24.7847 29.5113C24.5451 30.4413 24.1873 31.3414 23.9154 32.2637C23.0369 31.9841 22.1069 31.935 21.1922 31.925C20.2738 31.935 19.3415 31.9826 18.4606 32.2637C18.1888 31.4028 17.8993 30.5465 17.6205 29.688C17.5629 29.605 17.6082 29.4253 17.7303 29.5236C18.2517 29.8661 18.777 30.2063 19.277 30.5803C19.118 30.6725 18.956 30.7585 18.7985 30.8529C19.1119 31.1432 19.4306 31.4274 19.7477 31.7131C20.0257 31.3682 20.2599 30.9912 20.5018 30.6226C20.3168 30.5627 20.124 30.5296 19.9328 30.4997C20.071 30.1856 20.306 29.9306 20.4934 29.6465Z"></path>
<path fill="#50000B" d="M6.50901 29.8611C6.83923 29.6407 7.25163 29.4664 7.64789 29.6146C8.27454 29.845 8.70459 30.527 8.65852 31.1912C8.63164 31.5821 8.31524 31.8609 8.02111 32.0782C7.37987 32.5405 6.7371 32.9998 6.08971 33.4529C5.98066 33.2908 5.87008 33.1303 5.75872 32.9706C6.36157 32.5459 6.9598 32.1151 7.56188 31.6889C7.7723 31.5284 8.03801 31.3755 8.10252 31.0983C8.17163 30.6322 7.78228 30.1077 7.28925 30.1307C7.10111 30.1514 6.94214 30.2643 6.78625 30.3618C6.1427 30.7996 5.49839 31.2365 4.85407 31.672C4.74426 31.5145 4.63444 31.3563 4.52539 31.1989C5.18737 30.755 5.84243 30.2989 6.50901 29.8611Z"></path>
<path fill="#50000B" d="M33.5417 31.0235C33.802 30.6549 34.0915 30.3085 34.3734 29.9568C35.3264 30.7209 36.2833 31.4812 37.2371 32.2453C36.8408 32.7168 36.5014 33.249 36.0091 33.6284C35.5345 34.0024 34.848 33.9985 34.3227 33.7343C33.7575 33.4487 33.2829 32.9126 33.1977 32.2699C33.1285 31.826 33.2906 31.3829 33.5417 31.0235ZM33.8043 31.5733C33.6208 31.955 33.7368 32.4188 34.0055 32.7299C34.3411 33.1284 34.8572 33.4625 35.4001 33.3412C35.9001 33.2298 36.1735 32.7552 36.4906 32.3989C35.7972 31.8398 35.106 31.2769 34.401 30.734C34.1645 30.9828 33.9549 31.2638 33.8043 31.5733Z"></path>
<path fill="#50000B" d="M20.0521 32.5827C21.0236 32.5013 22.0096 32.5051 22.9719 32.6733C23.2138 32.7279 23.4787 32.7655 23.6768 32.926C23.7943 33.0166 23.6615 33.1426 23.5693 33.1802C23.1638 33.3645 22.7123 33.4052 22.2746 33.4528C21.3138 33.5304 20.3393 33.5235 19.3878 33.356C19.1428 33.2984 18.8695 33.26 18.6767 33.0842C18.6014 32.9575 18.7512 32.8753 18.8464 32.8323C19.2281 32.6741 19.6443 32.628 20.0521 32.5827Z"></path>
<path fill="#50000B" d="M18.6988 38.9936C19.0029 38.8063 19.4376 39.0443 19.4483 39.3991C19.489 39.7708 19.0475 40.0672 18.7203 39.8837C18.364 39.727 18.3509 39.1672 18.6988 38.9936Z"></path>
<path fill="#50000B" d="M23.8328 39.8235C24.1684 39.633 24.6207 39.9464 24.5631 40.3265C24.5386 40.6982 24.054 40.9125 23.7637 40.6775C23.4627 40.477 23.5049 39.9725 23.8328 39.8235Z"></path>
</g>
<defs>
<clipPath id="clip0_5244_17550">
<rect fill="white" height="51" width="172.866"></rect>
</clipPath>
</defs>
</svg>
