<svg viewBox="0 0 145 94" version="1.1" xmlns="http://www.w3.org/2000/svg" id="Layer_1">
  
  <defs>
    <style>
      .st0 {
        fill: #50000b;
      }
    </style>
  </defs>
  <path d="M134.753,6.131c-8.85-7.352-21.83-7.874-34.88-2.732,10.58-3.288,20.799-2.345,27.98,3.616,13.893,11.53,11.162,37.424-6.098,57.835-17.26,20.41-42.514,27.611-56.406,16.08-6.75-5.601-9.564-14.597-8.706-24.703-2.093,12.762.85,24.376,9.217,31.325,15.403,12.795,43.312,4.94,62.336-17.544,19.025-22.483,21.96-51.082,6.557-63.877" class="st0"></path>
  <path d="M84.919,52.592h.694c.0706-.0095.1355.0401.145.1107.0015.0114.0015.0229,0,.0343v1.316c.0005.1655.1345.2995.3.3h1.14c.1652-.0011.2989-.1348.3-.3v-2.414c0-.1657-.1343-.3-.3-.3h-1.212c-.162,0-.322-.032-.471-.094-.1444-.0591-.2751-.1473-.384-.259-.1086-.113-.1963-.2444-.259-.388-.066-.149-.099-.31-.098-.472v-2.072c-.001-.163.033-.323.098-.472.063-.144.15-.275.26-.388.108-.112.238-.2.383-.26.149-.061.31-.093.471-.092h1.233c.3205-.001.6282.1256.855.352.109.113.196.245.259.388.065.149.099.31.098.471v.768c.0101.07-.0384.1349-.1084.145-.0121.0018-.0245.0018-.0366,0h-.694c-.0614.0081-.12-.0283-.14-.087-.0061-.0187-.0078-.0385-.005-.058v-.757c.0005-.1651-.1329-.2994-.298-.3h-1.09c-.1655.0005-.2995.1345-.3.3v2.093c0,.1657.1343.3.3.3h1.212c.3203-.0008.6277.1262.854.353.11.113.197.244.26.389.065.148.099.308.098.47v2.353c0,.162-.033.323-.099.471-.062.144-.15.276-.259.389-.108.111-.239.2-.383.259-.149.062-.31.094-.471.093h-1.285c-.3204.0008-.628-.1258-.855-.352-.1088-.1132-.1965-.2449-.259-.389-.065-.148-.099-.309-.098-.471v-1.285c-.0095-.0706.0401-.1355.1107-.145.0114-.0015.0229-.0015.0343,0M92.98,54.26c.0398-.0055.0799.0083.108.037.0285.0283.0421.0682.037.108v.632c.0101.07-.0384.1349-.1084.145-.0121.0018-.0245.0018-.0366,0h-3.213c-.0397.0057-.0797-.0076-.108-.036-.0286-.0286-.0423-.0689-.037-.109v-7.997c-.0101-.07.0384-.1349.1084-.145.0121-.0018.0245-.0018.0366,0h3.15c.07-.0101.1349.0384.145.1084.0018.0121.0018.0245,0,.0366v.642c.0101.07-.0384.1349-.1084.145-.0121.0018-.0245.0018-.0366,0h-2.31v2.528h1.896c.07-.0101.1349.0384.145.1084.0018.0121.0018.0245,0,.0366v.632c.0094.0614-.0269.1207-.086.14-.0193.0064-.0399.0081-.06.005h-1.895v2.984h2.373v-.001h0ZM94.565,46.894h2.352c.3204-.0008.628.1258.855.352.109.113.197.245.26.389.065.148.098.309.097.47v2.436c.005.246-.069.488-.212.689-.1377.1936-.3259.3458-.544.44l.829,3.367c.0163.0422.0086.09-.02.125-.0141.0138-.0333.0211-.053.02h-.776c-.0226,0-.0445-.007-.063-.02l-.046-.047c-.0198-.0218-.0326-.0489-.037-.078l-.808-3.284h-.994v3.284c.0093.0617-.0275.121-.087.14-.0187.0061-.0385.0078-.058.005h-.695c-.0614.0094-.1207-.0269-.14-.086-.0063-.019-.008-.0392-.005-.059v-7.997c-.0061-.0405.0077-.0814.037-.11.0287-.0277.0685-.0407.108-.035v-.001h0ZM97.057,47.904c-.0557-.057-.1323-.0888-.212-.088h-1.44v3.056h1.44c.1657,0,.3-.1343.3-.3h0v-2.456c.0011-.0798-.0308-.1564-.088-.212M102.139,47.039c.0023-.0246.0098-.0485.022-.07.0127-.0219.0301-.0407.051-.055.0147-.0115.0324-.0185.051-.02h.777c.0194-.0008.0382.0064.052.02.0148.0168.0251.0371.03.059.0058.0216.0062.0443.001.066l-1.378,7.998c-.0041.029-.0167.0561-.036.078l-.047.047c-.0221.0122-.0468.019-.072.02h-.954c-.0255.0007-.0505-.0063-.072-.02-.0241-.0107-.0445-.028-.059-.05-.015-.0222-.0233-.0482-.024-.075l-1.378-7.998c-.0102-.0442.0013-.0907.031-.125.0138-.0137.0326-.0209.052-.02h.777c.019.002.037.009.052.02.0207.0138.0379.0323.05.054.0127.0213.0202.0453.022.07l1.026,6.238,1.026-6.237h0ZM105.061,55.182h-.694c-.0399.0056-.0802-.0077-.109-.036-.0283-.0288-.0416-.069-.036-.109v-7.997c-.0059-.0403.0074-.081.036-.11.0286-.0285.0692-.0415.109-.035h.694c.0399-.0056.0802.0077.109.036.0288.0284.0422.069.036.109v7.998c.0059.0403-.0074.081-.036.11-.0286.0285-.0692.0415-.109.035M108.931,47.852c-.0559-.0573-.1329-.0891-.213-.088h-1.088c-.1657,0-.3.1343-.3.3h0v5.989c.0005.1655.1345.2995.3.3h1.14c.1657,0,.3-.1343.3-.3h0v-1.316c-.0089-.0712.0416-.1362.1129-.1451.011-.0014.0221-.0013.0331,0h.694c.0195-.0029.0393-.0012.058.005.0386.0122.0688.0424.081.081.007.0188.0091.0391.006.059v1.285c.001.162-.033.322-.099.47-.062.145-.15.276-.259.39-.108.111-.239.2-.383.259-.149.062-.31.094-.472.093h-1.284c-.162,0-.322-.031-.472-.093-.1442-.0594-.2746-.1479-.383-.26-.109-.1127-.1968-.2441-.259-.388-.0657-.1483-.0992-.3088-.098-.471v-5.968c-.0012-.1622.0322-.3228.098-.471.062-.145.15-.276.259-.389.109-.112.239-.2.383-.26.15-.061.31-.093.472-.093h1.233c.3206-.0005.6282.1265.855.353.108.113.196.245.259.389.065.148.099.308.098.47v.768c.0052.0396-.008.0794-.036.108-.0282.0292-.0688.043-.109.037h-.694c-.0401.0053-.0804-.0084-.109-.037-.0285-.0282-.0419-.0683-.036-.108v-.757c.0002-.0394-.0073-.0785-.022-.115-.0156-.0363-.038-.0692-.066-.097M114.552,54.26c.0195-.0026.0394-.0006.058.006.019.0061.0364.0164.051.03.0283.0288.0416.069.036.109v.632c.0059.0403-.0074.081-.036.11-.0146.0136-.032.0239-.051.03-.0187.0062-.0385.008-.058.005h-3.212c-.07.0101-.1349-.0384-.145-.1084-.0018-.0121-.0018-.0245,0-.0366v-7.997c-.0059-.0403.0074-.081.036-.11.0286-.0285.0692-.0415.109-.035h3.15c.0397-.0059.0798.0075.108.036.0286.0286.0423.0689.037.109v.642c.0088.0713-.0418.1362-.113.145-.0106.0013-.0214.0013-.032,0h-2.311v2.528h1.896c.0399-.0056.0802.0077.109.036.0293.0286.0427.0697.036.11v.631c.0056.04-.0077.0802-.036.109-.0288.0283-.0691.0416-.109.036h-1.896v2.984h2.373v-.001h0ZM115.878,52.592h.694c.0399-.0056.0802.0077.109.036.0138.0142.0244.0313.031.05.0062.019.0079.0392.005.059v1.316c.0011.1656.1354.2995.301.3h1.139c.1656-.0005.2999-.1344.301-.3v-2.414c-.0011-.1656-.1354-.2995-.301-.3h-1.212c-.162,0-.322-.032-.471-.094-.1444-.059-.2751-.1472-.384-.259-.1083-.1132-.1959-.2446-.259-.388-.0654-.1487-.0987-.3095-.098-.472v-2.072c-.0008-.1625.0326-.3233.098-.472.063-.144.15-.275.259-.388.109-.112.239-.2.384-.26.149-.061.309-.093.471-.092h1.233c.3205-.0013.6283.1255.855.352.108.113.196.245.259.388.065.149.099.31.098.471v.768c.0052.0396-.008.0794-.036.108-.0285.0288-.0689.0425-.109.037h-.694c-.0401.0053-.0804-.0084-.109-.037-.0285-.0282-.0419-.0683-.036-.108v-.757c-.001-.1212-.0742-.2302-.186-.277-.0364-.0152-.0755-.0231-.115-.023h-1.087c-.0798.0003-.1562.0319-.213.088-.0566.056-.0883.1324-.088.212v2.093c.0011.1656.1354.2995.301.3h1.212c.3204-.0013.628.1259.854.353.109.113.197.244.259.389.066.148.1.308.099.47v2.353c.001.162-.033.323-.099.471-.0621.1442-.1499.276-.259.389-.2265.2263-.5338.353-.854.352h-1.285c-.3205.0013-.6283-.1255-.855-.352-.1087-.1133-.1964-.245-.259-.389-.0653-.1484-.0987-.3089-.098-.471v-1.285c-.0064-.04.007-.0807.036-.109.0284-.0288.069-.0422.109-.036M63.14,19.96h5.879c.395.03.79-.056,1.14-.245.4321-.375.4784-1.0294.1034-1.4615-.0337-.0388-.0703-.0751-.1094-.1085-.3456-.192-.7397-.2789-1.134-.25h-2.407c-1.428,0-2.393-.218-2.895-.655-.502-.437-.753-1.213-.753-2.328,0-1.134.303-1.969.91-2.504.606-.534,1.545-.802,2.816-.802h5.987v2.201h-4.92c-.802,0-1.324.07-1.565.21-.2526.1606-.3928.4502-.362.748-.0225.2783.0971.5492.318.72.303.1764.6524.2566,1.002.23h2.524c1.154,0,2.034.268,2.64.806.6344.6042.9678,1.4588.91,2.333.039.869-.25,1.72-.807,2.387-.5182.6047-1.282.9428-2.078.92h-7.199v-2.202s0,.001,0,.001ZM75.23,11.606h5.37c1.617,0,2.878.476,3.785,1.428.906.952,1.36,2.28,1.36,3.981.006.652-.09,1.3-.284,1.922-.1876.5811-.4794,1.1233-.861,1.6-.425.5564-.9928.9873-1.643,1.247-.818.279-1.68.407-2.544.376h-2.396v3.825h-2.787s0-14.379,0-14.379ZM78.017,13.886v6.014h1.702c1.128,0,1.927-.238,2.396-.714.47-.476.705-1.268.705-2.377,0-1.07-.216-1.824-.646-2.264s-1.177-.66-2.24-.66h-1.917s0,.001,0,.001ZM87.661,11.606h5.713c1.44,0,2.527.331,3.257.993.73.662,1.095,1.645,1.095,2.949v6.612h-7.492c-1.05,0-1.857-.264-2.421-.792-.5905-.5947-.8984-1.4136-.846-2.25,0-1.2.324-2.06.973-2.582.649-.522,1.726-.783,3.233-.783h3.668v-.264c.0533-.5056-.1553-1.0034-.553-1.32-.368-.255-1.025-.382-1.971-.382h-4.656v-2.181ZM91.368,20.038h3.492v-2.181h-3.286c-.4658-.042-.934.0492-1.35.263-.2702.225-.4099.5704-.372.92-.0326.2925.0789.5826.299.778.3773.1851.7988.2612,1.217.22ZM105.914,19.9h2.963v2.26h-3.785c-.7979.0217-1.5945-.0788-2.362-.298-.6041-.1912-1.155-.521-1.609-.963-.5021-.5022-.8938-1.1037-1.15-1.766-.2784-.7019-.4193-1.4509-.415-2.206-.0066-.7802.1325-1.5548.41-2.284.25-.67.644-1.276,1.155-1.775.4613-.4427,1.0189-.7727,1.629-.964.7611-.2174,1.5507-.3179,2.342-.298h3.785v2.28h-2.963c-1.311,0-2.214.226-2.71.679-.495.453-.743,1.24-.743,2.362-.019.55.085,1.099.303,1.604.205.428.532.785.939,1.027.226.13.472.22.729.264.491.066.986.092,1.482.079M115.421,22.16c-1.748,0-3.07-.445-3.967-1.335-.896-.89-1.345-2.203-1.345-3.937,0-1.735.45-3.049,1.35-3.942s2.22-1.34,3.962-1.34h4.069v2.2h-3.688c-1.011,0-1.69.144-2.04.431-.349.288-.536.806-.562,1.555h6.29v2.202h-6.29c.026.756.201,1.273.523,1.55.323.276,1.01.415,2.06.415h3.707v2.201s-4.069,0-4.069,0ZM.7,30.597h5.713c1.44,0,2.526.33,3.257.992.73.662,1.095,1.645,1.095,2.95v6.612H3.273c-1.05,0-1.857-.264-2.421-.793-.5907-.5945-.8987-1.4135-.846-2.25,0-1.2.324-2.06.973-2.582.649-.521,1.726-.782,3.233-.782h3.668v-.264c.0529-.5055-.1556-1.0031-.553-1.32-.368-.255-1.025-.382-1.97-.382H.7v-2.181ZM4.407,39.028h3.493v-2.18h-3.287c-.4658-.042-.934.0492-1.35.263-.2701.2251-.4097.5704-.372.92-.0325.292.0786.5816.298.777.378.185.8.261,1.218.22M13.22,30.596h5.37c1.618,0,2.88.477,3.786,1.429.907.952,1.36,2.279,1.36,3.98.006.652-.09,1.3-.284,1.922-.1874.581-.4788,1.1231-.86,1.6-.4253.5565-.9934.9875-1.644,1.247-.818.28-1.68.407-2.544.377h-2.396v3.824h-2.787v-14.379s-.001,0-.001,0ZM16.008,32.876v6.015h1.702c1.128,0,1.927-.238,2.397-.714.469-.476.704-1.268.704-2.377,0-1.069-.215-1.824-.646-2.264-.43-.44-1.177-.66-2.24-.66h-1.917ZM25.457,30.596h5.37c1.617,0,2.879.477,3.785,1.429.907.952,1.36,2.279,1.36,3.98.0068.6516-.0891,1.3002-.284,1.922-.1875.581-.4789,1.1231-.86,1.6-.4253.5565-.9934.9875-1.644,1.247-.817.28-1.68.407-2.543.377h-2.396v3.824h-2.788s0-14.379,0-14.379ZM28.245,32.876v6.015h1.702c1.128,0,1.926-.238,2.396-.714s.704-1.268.704-2.377c0-1.069-.215-1.824-.645-2.264s-1.177-.66-2.24-.66h-1.917ZM40.54,26.772h-2.905v14.378h2.905v-14.378ZM45.85,29.393h-2.924v-2.621h2.924v2.621ZM45.85,41.15h-2.924v-10.554h2.924v10.554ZM54.008,38.891h2.964v2.26h-3.785c-.798.0213-1.5945-.0795-2.362-.299-.6044-.1911-1.1557-.5209-1.61-.963-.5017-.5023-.8931-1.1038-1.149-1.766-.2782-.7017-.4191-1.4502-.415-2.205-.0066-.7802.1324-1.5548.41-2.284.2489-.6699.643-1.2764,1.154-1.776.4615-.4423,1.019-.7719,1.629-.963.7613-.2178,1.5514-.3186,2.343-.299h3.785v2.28h-2.964c-1.31,0-2.214.226-2.71.68-.495.453-.742,1.24-.742,2.362-.02.55.084,1.098.303,1.604.205.427.532.784.939,1.027.225.13.472.22.728.264.491.065.987.091,1.482.078M59.026,30.597h5.713c1.44,0,2.526.33,3.257.992.73.662,1.095,1.645,1.095,2.95v6.612h-7.491c-1.05,0-1.857-.264-2.42-.793-.591-.5944-.8993-1.4134-.847-2.25,0-1.2.324-2.06.973-2.582.65-.521,1.727-.782,3.233-.782h3.668v-.264c.0529-.5055-.1556-1.0031-.553-1.32-.368-.255-1.025-.382-1.97-.382h-4.657v-2.181s-.001,0-.001,0ZM62.733,39.028h3.492v-2.18h-3.285c-.4658-.042-.934.0492-1.35.263-.2701.2251-.4097.5704-.372.92-.0321.2921.0793.5817.299.777.377.185.8.261,1.218.22M70.48,30.596h1.967v-3.824h2.787v3.824h2.945v2.104h-2.945v4.265c0,.782.134,1.325.401,1.629.268.303.734.455,1.399.454h1.145v2.104h-2.544c-1.03,0-1.82-.286-2.367-.856s-.821-1.388-.821-2.45v-5.146h-1.967s0-2.104,0-2.104ZM82.746,29.393h-2.925v-2.621h2.925v2.621ZM82.746,41.15h-2.925v-10.554h2.925v10.554ZM95.648,35.879c0,1.656-.504,2.978-1.511,3.966-1.008.988-2.366,1.482-4.074,1.482-1.709,0-3.071-.496-4.089-1.487-1.017-.991-1.526-2.312-1.526-3.961,0-1.657.509-2.982,1.526-3.976,1.017-.995,2.38-1.492,4.089-1.492,1.695,0,3.05.497,4.064,1.492,1.014.994,1.52,2.32,1.52,3.976h.001ZM87.373,35.879c-.0511.8411.1985,1.6729.704,2.347,1.0357,1.0858,2.7556,1.1264,3.8413.0906.0309-.0295.0611-.0597.0907-.0906.9499-1.4185.9519-3.2695.005-4.69-1.0427-1.0845-2.7671-1.1183-3.8516-.0756-.0274.0263-.0542.0532-.0804.0806-.5082.6696-.76,1.4989-.71,2.338M97.35,30.597h5.242c1.585,0,2.716.298,3.395.895.678.596,1.017,1.586,1.017,2.969v6.69h-2.788v-6.348c0-.79-.122-1.301-.367-1.536-.245-.235-.735-.352-1.472-.352h-2.24v8.236h-2.787s0-10.554,0-10.554ZM109.204,38.95h5.879c.396.03.791-.055,1.14-.245.2265-.1985.3566-.4848.357-.786-.0011-.3012-.1332-.587-.362-.783-.3459-.1921-.7404-.2789-1.135-.25h-2.406c-1.428,0-2.393-.219-2.895-.655-.502-.437-.754-1.213-.754-2.328,0-1.135.304-1.97.91-2.504.607-.535,1.546-.802,2.817-.803h5.986v2.202h-4.92c-.802,0-1.323.07-1.565.21-.251.162-.3907.4506-.362.748-.0214.2779.098.5479.318.719.3033.1766.6531.2568,1.003.23h2.523c1.155,0,2.035.269,2.641.807.6343.6043.9676,1.4589.91,2.333.038.868-.25,1.72-.807,2.386-.5187.6041-1.2821.9421-2.078.92h-7.2v-2.201h0Z" class="st0"></path>
</svg>