<svg xmlns="http://www.w3.org/2000/svg" fill="none" viewBox="0 0 105 144" height="144" width="105">
<g clip-path="url(#clip0_373_633)" id="NSF CONTENTS CERTIFIED_White_Vert 2">
<path fill="#50000B" d="M-0.000976562 0V144.027H104.543V0H-0.000976562ZM101.847 141.332H2.69414V2.69512H101.847V141.332Z" id="Vector"></path>
<path fill="#50000B" d="M15.901 22.6096C16.4669 23.2564 17.1407 23.7416 17.8414 24.0919C18.5691 24.4153 19.3507 24.5771 20.2131 24.5771C21.4529 24.5771 22.504 24.2806 23.3934 23.6877C24.2828 23.0947 24.9835 22.2323 25.5225 21.0465H22.7735C22.504 21.4507 22.1267 21.7472 21.6955 21.9628C21.2373 22.1784 20.7522 22.2862 20.1862 22.2862C19.216 22.2862 18.3805 21.9358 17.7067 21.2082C17.0329 20.5074 16.7095 19.618 16.7095 18.5669C16.7095 18.0818 16.7903 17.6237 16.979 17.1655C17.1677 16.7073 17.4372 16.3031 17.7606 15.9527C18.084 15.6293 18.4344 15.3598 18.8656 15.1981C19.2968 15.0363 19.728 14.9285 20.1862 14.9285C20.7522 14.9285 21.2642 15.0363 21.7224 15.252C22.1806 15.4676 22.5579 15.791 22.8813 16.2491H25.6034C25.0374 15.0363 24.3097 14.12 23.4203 13.5271C22.5309 12.9342 21.4529 12.6377 20.2131 12.6377C19.4316 12.6377 18.7039 12.7725 18.0301 13.0689C17.3563 13.3384 16.7364 13.7696 16.1705 14.3087C15.5775 14.9016 15.1463 15.5484 14.8229 16.2761C14.5265 17.0038 14.3647 17.7584 14.3647 18.54C14.3647 19.3216 14.4995 20.0762 14.7421 20.75C14.9846 21.4238 15.3619 22.0436 15.8471 22.6096H15.901Z" id="Vector_2"></path>
<path fill="#50000B" d="M28.246 22.7459C28.8119 23.3389 29.4318 23.797 30.1595 24.0935C30.8872 24.39 31.6688 24.5517 32.5043 24.5517C33.3128 24.5517 34.0674 24.39 34.7951 24.0935C35.5228 23.7701 36.1696 23.3389 36.7086 22.7459C37.2477 22.18 37.6519 21.5601 37.9484 20.8324C38.2179 20.1047 38.3796 19.3501 38.3796 18.5146C38.3796 17.6791 38.2179 16.9784 37.9214 16.2507C37.625 15.55 37.1938 14.9032 36.6278 14.3102C36.0618 13.7712 35.4419 13.34 34.7412 13.0435C34.0405 12.7471 33.3128 12.6123 32.5582 12.6123C31.534 12.6123 30.6177 12.8279 29.7552 13.2861C28.8928 13.7443 28.1921 14.3641 27.6261 15.1996C27.3027 15.6847 27.0601 16.2238 26.8715 16.7628C26.6828 17.3018 26.6289 17.9217 26.6289 18.5416C26.6289 19.3501 26.7637 20.1047 27.0332 20.8055C27.3027 21.5062 27.707 22.153 28.246 22.719V22.7459ZM30.0248 16.0082C30.7255 15.3344 31.561 14.984 32.5582 14.984C33.5554 14.984 34.3369 15.3344 35.0107 16.0082C35.6845 16.6819 36.0349 17.5444 36.0349 18.5146C36.0349 19.5927 35.6845 20.482 35.0107 21.1828C34.3369 21.8835 33.5014 22.2608 32.5043 22.2608C32.0191 22.2608 31.561 22.153 31.1297 21.9374C30.6985 21.7218 30.2943 21.4253 29.9439 21.048C29.6205 20.6976 29.3779 20.3203 29.2162 19.8891C29.0545 19.4579 28.9737 18.9997 28.9737 18.5146C28.9737 17.5444 29.324 16.7089 30.0248 16.0082Z" id="Vector_3"></path>
<path fill="#50000B" d="M42.1519 16.7888L46.9222 24.3351H48.9975V12.8809H46.7875V20.1846L42.071 12.8809H39.9419V24.3351H42.1519V16.7888Z" id="Vector_4"></path>
<path fill="#50000B" d="M52.367 24.3351H54.604V14.8752H56.7331V12.8809H50.2109V14.8752H52.367V24.3351Z" id="Vector_5"></path>
<path fill="#50000B" d="M64.1152 22.3138H60.1803V19.4839H64.1152V17.4895H60.1803V14.8752H64.1152V12.8809H57.9434V24.3351H64.1152V22.3138Z" id="Vector_6"></path>
<path fill="#50000B" d="M68.3491 16.7888L73.1194 24.3351H75.1946V12.8809H73.0116V20.1846L68.2682 12.8809H66.166V24.3351H68.3491V16.7888Z" id="Vector_7"></path>
<path fill="#50000B" d="M78.5608 24.3351H80.7977V14.8752H82.9538V12.8809H76.4316V14.8752H78.5608V24.3351Z" id="Vector_8"></path>
<path fill="#50000B" d="M83.4698 20.7769C83.4698 21.9089 83.7932 22.8252 84.4401 23.526C85.0599 24.2267 85.8954 24.5771 86.9196 24.5771C87.9976 24.5771 88.8601 24.2267 89.5338 23.499C90.1807 22.7713 90.5041 21.828 90.5041 20.6422C90.5041 19.8606 90.3154 19.2138 89.9381 18.7287C89.5608 18.2166 88.9948 17.8393 88.1863 17.5698C88.0246 17.5159 87.782 17.435 87.4586 17.3541C86.7579 17.1655 86.2997 16.9229 86.0841 16.7073C86.0032 16.5995 85.9224 16.4917 85.8685 16.357C85.8146 16.2222 85.8146 16.0874 85.8146 15.8988C85.8146 15.4945 85.9224 15.1981 86.138 14.9555C86.3536 14.7399 86.6501 14.6051 87.0004 14.6051C87.3508 14.6051 87.6472 14.7129 87.8629 14.9285C88.0785 15.1442 88.1863 15.4406 88.1863 15.8179V15.9257H90.2076C90.1537 14.8746 89.8303 14.0661 89.2913 13.5001C88.7523 12.9342 87.9976 12.6377 87.0813 12.6377C86.0841 12.6377 85.3025 12.9611 84.7096 13.6079C84.1167 14.2548 83.8202 15.1172 83.8202 16.1952C83.8202 16.9768 84.0358 17.6237 84.467 18.1357C84.8982 18.6478 85.5451 19.0521 86.4345 19.3216C86.5153 19.3216 86.6231 19.3755 86.7579 19.4294C87.809 19.7528 88.348 20.2918 88.348 21.0195C88.348 21.4777 88.2132 21.855 87.9437 22.1245C87.6742 22.394 87.3238 22.5288 86.8657 22.5288C86.4344 22.5288 86.111 22.394 85.8685 22.0975C85.6259 21.8011 85.4912 21.4238 85.4912 20.9386V20.7769H83.4429H83.4698Z" id="Vector_9"></path>
<path fill="#50000B" d="M16.8432 49.3492C18.2986 49.3492 19.4036 48.9179 20.1043 48.0285C20.8051 47.1661 21.1554 45.9803 21.1554 44.5249V42.1532H19.1341V44.6327C19.1341 45.4951 18.9454 46.1959 18.5951 46.654C18.2447 47.1392 17.6787 47.3817 16.8971 47.3817C16.1156 47.3817 15.5765 47.1392 15.1992 46.654C14.8489 46.1689 14.6602 45.4951 14.6602 44.6327V34.526C14.6602 33.6636 14.8489 32.9629 15.1992 32.5047C15.5496 32.0196 16.1156 31.777 16.8971 31.777C17.6787 31.777 18.2447 32.0196 18.5951 32.5047C18.9454 32.9898 19.1341 33.6636 19.1341 34.526V36.3587H21.1554V34.6338C21.1554 33.1785 20.8051 32.0196 20.1043 31.1302C19.4036 30.2677 18.3256 29.8096 16.8432 29.8096C16.1156 29.8096 15.4957 29.9174 14.9567 30.1599C14.4176 30.3755 13.9864 30.699 13.6361 31.1302C13.2857 31.5614 13.0162 32.0465 12.8545 32.6394C12.6928 33.2324 12.585 33.8792 12.585 34.6069V44.4979C12.585 45.9533 12.9353 47.1122 13.6361 48.0016C14.3368 48.864 15.4148 49.3222 16.8702 49.3222L16.8432 49.3492Z" id="Vector_10"></path>
<path fill="#50000B" d="M31.1831 31.9922V30.0518H23.3403V49.1601H31.1831V47.2196H25.4695V40.428H30.1051V38.5144H25.4695V31.9922H31.1831Z" id="Vector_11"></path>
<path fill="#50000B" d="M41.3172 38.542C41.6945 37.8951 41.8832 37.0327 41.8832 35.9816V34.4184C41.8832 32.99 41.5598 31.912 40.886 31.1573C40.2122 30.4027 39.1341 30.0254 37.6249 30.0254H33.3936V49.1338H35.5227V40.9676H37.032C37.9213 40.9676 38.5951 41.1832 39.0802 41.5874C39.5654 41.9917 39.8079 42.7463 39.8079 43.8244V46.816C39.8079 47.4628 39.8079 47.921 39.8888 48.2444C39.9427 48.5678 40.0235 48.8642 40.1583 49.1338H42.3144C42.1257 48.8103 42.0179 48.46 41.991 48.0557C41.964 47.6784 41.9371 47.2741 41.9371 46.8429V43.8783C41.9371 42.8272 41.7484 41.9917 41.398 41.291C41.0477 40.6172 40.4278 40.1321 39.5384 39.8895C40.3469 39.6469 40.9399 39.1888 41.3441 38.515L41.3172 38.542ZM39.8079 36.4398C39.8079 37.4639 39.5654 38.1646 39.1072 38.542C38.649 38.9193 37.9752 39.081 37.1128 39.081H35.5227V32.0198H37.5979C38.4065 32.0198 38.9724 32.2354 39.2959 32.6666C39.6193 33.0978 39.8079 33.7716 39.8079 34.634V36.4667V36.4398Z" id="Vector_12"></path>
<path fill="#50000B" d="M49.2372 49.1601V31.9922H52.7408V30.0518H43.6313V31.9922H47.135V49.1601H49.2372Z" id="Vector_13"></path>
<path fill="#50000B" d="M56.5984 30.0518H54.4692V49.1601H56.5984V30.0518Z" id="Vector_14"></path>
<path fill="#50000B" d="M66.5977 31.9922V30.0518H59.0244V49.1601H61.1536V40.8861H65.5466V38.9456H61.1536V31.9922H66.5977Z" id="Vector_15"></path>
<path fill="#50000B" d="M70.6907 30.0518H68.5615V49.1601H70.6907V30.0518Z" id="Vector_16"></path>
<path fill="#50000B" d="M80.9624 31.9922V30.0518H73.1196V49.1601H80.9624V47.2196H75.2488V40.428H79.8844V38.5144H75.2488V31.9922H80.9624Z" id="Vector_17"></path>
<path fill="#50000B" d="M90.9304 47.894C91.6311 47.0585 91.9815 45.8996 91.9815 44.4173V34.7688C91.9815 33.2865 91.6311 32.1276 90.9304 31.2921C90.2297 30.4566 89.1516 30.0254 87.6423 30.0254H83.1685V49.1338H87.6423C89.1247 49.1338 90.2297 48.7025 90.9304 47.8671V47.894ZM85.2976 47.2202V31.9928H87.5884C88.37 31.9928 88.936 32.2354 89.3133 32.6936C89.6906 33.1517 89.8793 33.8255 89.8793 34.6879V44.5251C89.8793 45.3875 89.6906 46.0613 89.3133 46.5195C88.936 46.9777 88.37 47.2202 87.6154 47.2202H85.2976Z" id="Vector_18"></path>
<path stroke-width="0.45882" stroke="#50000B" fill="#50000B" d="M52.2598 57.6631C72.465 57.6632 88.9004 74.0985 88.9004 94.3037C88.9003 114.509 72.465 130.944 52.2598 130.944C32.0545 130.944 15.6192 114.509 15.6191 94.3037C15.6191 74.0984 32.0545 57.6631 52.2598 57.6631ZM52.2598 60.2246C33.4399 60.2246 18.2072 75.4565 18.207 94.2764C18.207 113.096 33.4666 128.329 52.2598 128.329C71.0797 128.329 86.3125 113.096 86.3125 94.2764C86.3124 75.4566 71.0796 60.2247 52.2598 60.2246Z" id="Vector_19"></path>
<path fill="#50000B" d="M38.8067 93.9267L33.4434 79.6426H28.6191V109.1H34.1441V93.5763L39.5074 108.965H43.7926V79.6426H38.8067V93.9267Z" id="Vector_20"></path>
<path fill="#50000B" d="M51.3395 86.8114C51.0161 84.817 52.0402 83.685 53.4147 83.685C55.0048 83.685 55.5439 85.5177 55.5439 88.3745H60.2873C60.1525 81.4211 57.8078 79.4268 53.4956 79.4268C48.2671 79.4268 46.1918 82.6609 46.1918 87.2695C46.1918 96.0017 55.1127 96.5946 55.1127 101.877C55.1127 103.871 54.5467 105.057 53.3608 105.057C50.9891 105.057 50.9083 103.117 50.9083 100.314H45.6528C45.4372 105.947 48.2132 109.45 53.253 109.45C55.5708 109.45 60.8263 108.426 60.6915 101.365C60.5298 93.2527 52.175 92.0938 51.3664 86.8114H51.3395Z" id="Vector_21"></path>
<path fill="#50000B" d="M62.8242 108.965H68.6457V96.7296H73.2004V91.6628H68.6457V84.1704H75.0061V79.6426H62.8242V108.965Z" id="Vector_22"></path>
<path fill="#50000B" d="M73.8719 106.699C73.8719 106.241 73.6024 106.025 73.0365 106.025H72.1201V108.424H72.4974V107.4H72.9017L73.5485 108.424H73.9528L73.279 107.373C73.6294 107.346 73.8989 107.157 73.8989 106.726L73.8719 106.699ZM72.8748 107.076H72.4974V106.322H72.9826C73.2251 106.322 73.5216 106.376 73.5216 106.699C73.5216 107.076 73.2251 107.103 72.9017 107.103L72.8748 107.076Z" id="Vector_23"></path>
<path fill="#50000B" d="M72.8999 105.162C71.768 105.162 70.8247 106.051 70.8247 107.21C70.8247 108.369 71.768 109.286 72.8999 109.286C74.0319 109.286 74.9482 108.396 74.9482 107.21C74.9482 106.025 74.0049 105.162 72.8999 105.162ZM72.8999 108.962C71.9297 108.962 71.202 108.208 71.202 107.21C71.202 106.213 71.9297 105.459 72.8999 105.459C73.8702 105.459 74.5709 106.213 74.5709 107.21C74.5709 108.208 73.8432 108.962 72.8999 108.962Z" id="Vector_24"></path>
</g>
<defs>
<clipPath id="clip0_373_633">
<rect fill="white" height="144" width="104.544"></rect>
</clipPath>
</defs>
</svg>
