<svg xmlns="http://www.w3.org/2000/svg" fill="none" viewBox="0 0 95 144" height="144" width="95">
<path fill="#50000B" d="M11.6841 128.732V129.058C11.6841 129.907 11.8799 130.624 12.3366 131.146C12.7933 131.668 13.3806 131.929 14.0983 131.929C14.816 131.929 15.5337 131.668 15.9904 131.212C16.4472 130.755 16.7082 130.102 16.7082 129.254C16.7082 127.949 15.7947 126.971 13.9025 126.383C13.6416 126.318 13.4458 126.253 13.3153 126.188C11.7494 125.666 10.5749 125.013 9.79198 124.1C9.00902 123.186 8.68279 122.012 8.68279 120.642C8.68279 119.271 9.20476 117.184 10.2487 116.009C11.2927 114.835 12.7281 114.247 14.4245 114.247C16.1209 114.247 17.3606 114.769 18.3393 115.813C19.318 116.857 19.84 118.293 19.9705 120.185H16.3819V119.989C16.3819 119.337 16.1862 118.815 15.7947 118.423C15.4032 118.032 14.8812 117.836 14.294 117.836C13.7068 117.836 13.1196 118.032 12.7281 118.488C12.3366 118.88 12.1409 119.467 12.1409 120.185C12.1409 120.903 12.1409 120.772 12.2714 120.968C12.3366 121.229 12.4671 121.425 12.6628 121.62C13.0543 122.012 13.8373 122.403 15.077 122.795C15.6642 122.925 16.0557 123.056 16.3819 123.186C17.7521 123.643 18.7961 124.361 19.4485 125.209C20.101 126.122 20.4272 127.232 20.4272 128.602C20.4272 130.69 19.84 132.386 18.6656 133.691C17.4911 134.996 15.9904 135.583 14.033 135.583C12.0756 135.583 10.7707 134.931 9.66149 133.756C8.55229 132.517 7.96507 130.885 7.96507 128.863H11.5537L11.6841 128.732ZM22.9066 114.639H27.9306C29.2356 114.639 30.2143 114.704 30.932 114.835C31.6497 114.965 32.2369 115.226 32.6937 115.487C33.5419 116.074 34.1943 116.792 34.6511 117.771C35.1078 118.684 35.3688 119.728 35.3688 120.772C35.3688 122.729 34.7163 124.295 33.4766 125.47C32.1717 126.644 30.4753 127.232 28.3221 127.232H26.8214V135.126H22.8414V114.639H22.9066ZM26.8867 123.773H27.9306C29.0398 123.773 29.888 123.512 30.4753 123.056C31.0625 122.599 31.3887 121.881 31.3887 120.968C31.3887 120.054 31.1277 119.337 30.5405 118.88C29.9533 118.423 29.1051 118.227 27.9306 118.227H26.8867V123.773ZM37.1304 121.62C37.4567 120.642 37.8482 119.663 38.4354 118.815C39.4141 117.314 40.719 116.205 42.2197 115.422C43.7204 114.639 45.3516 114.247 47.1785 114.247C49.0054 114.247 49.7884 114.508 51.0933 115.03C52.333 115.552 53.4422 116.335 54.4209 117.314C55.3996 118.358 56.1826 119.467 56.7045 120.772C57.2265 122.077 57.4875 123.382 57.4875 124.817C57.4875 126.253 57.2265 127.688 56.7698 128.928C56.2478 130.233 55.5301 131.342 54.5514 132.321C53.5727 133.365 52.4635 134.148 51.1585 134.735C49.8536 135.322 48.5487 135.583 47.1132 135.583C45.6778 135.583 44.2424 135.322 42.9374 134.735C41.6977 134.213 40.5233 133.365 39.5446 132.321C38.6311 131.277 37.9134 130.168 37.3914 128.928C36.9347 127.688 36.6737 126.318 36.6737 124.883C36.6737 123.447 36.8042 122.664 37.1304 121.686V121.62ZM40.7843 124.687C40.7843 125.6 40.9148 126.383 41.241 127.166C41.502 127.949 41.9587 128.602 42.5459 129.254C43.1984 129.972 43.8509 130.494 44.6338 130.82C45.4168 131.212 46.265 131.342 47.048 131.342C48.8097 131.342 50.3103 130.69 51.4848 129.45C52.6592 128.145 53.3117 126.579 53.3117 124.687C53.3117 122.795 52.7245 121.425 51.4848 120.25C50.2451 119.01 48.8097 118.423 47.1132 118.423C45.4168 118.423 43.8509 119.01 42.6112 120.25C41.3715 121.49 40.7843 122.99 40.7843 124.752V124.687ZM63.8817 135.126H59.9016V114.639H64.7299C66.2306 114.639 67.405 114.639 68.1227 114.769C68.8405 114.9 69.4929 115.03 70.0149 115.291C71.1893 115.813 72.0376 116.596 72.6248 117.575C73.212 118.554 73.5382 119.728 73.5382 121.033C73.5382 122.338 73.0815 123.969 72.2333 125.078C71.3851 126.188 70.2106 126.905 68.71 127.166L73.734 135.126H69.0362L63.8164 125.6V135.126H63.8817ZM63.8817 124.556H64.7299C66.3611 124.556 67.5355 124.295 68.3837 123.708C69.2319 123.121 69.6234 122.273 69.6234 121.164C69.6234 120.054 69.2972 119.271 68.5795 118.749C67.8618 118.227 66.8178 117.966 65.3171 117.966H63.8164V124.622L63.8817 124.556ZM78.4318 135.126H82.3466V118.227H86.1309V114.639H74.5822V118.227H78.3665V135.126H78.4318ZM94.1563 85.865V134.735C94.1563 139.889 89.85 144 84.4997 144H9.85723C4.50698 144 0.200684 139.824 0.200684 134.735V9.91753C0.200684 4.43679 4.63748 0 10.1182 0H84.304C89.7847 0 94.2215 4.43679 94.2215 9.91753V85.865H94.1563ZM91.6769 86.4522H2.68007V134.735C2.68007 138.454 5.87717 141.521 9.85723 141.521H84.4345C88.4145 141.521 91.6116 138.454 91.6116 134.735V86.4522H91.6769ZM2.68007 83.4508H91.7421V9.91753C91.7421 5.80698 88.4145 2.47939 84.304 2.47939H10.053C5.94241 2.47939 2.61482 5.80698 2.61482 9.91753V83.4508H2.68007ZM79.28 43.7155C79.28 62.0498 64.4037 76.9261 46.0693 76.9261C27.7349 76.9261 12.8586 62.0498 12.8586 43.7155C12.8586 25.3811 27.7349 10.5048 46.0693 10.5048C64.4037 10.5048 79.28 25.3811 79.28 43.7155ZM77.3226 43.7155C77.3226 26.425 63.2945 12.4622 46.0693 12.4622C28.8441 12.4622 14.816 26.4903 14.816 43.7155C14.816 60.9406 28.8441 74.9687 46.0693 74.9687C63.2945 74.9687 77.3226 60.9406 77.3226 43.7155ZM33.8029 43.3892L28.9093 30.4051H24.5378V57.2868H29.5618V43.1282L34.4553 57.1563H38.3701V30.4051H33.8029V43.3892ZM45.2211 36.8645C44.9601 35.0376 45.8735 33.9937 47.1132 33.9937C48.3529 33.9937 49.0706 35.6248 49.0706 38.3H53.3769C53.2464 31.971 51.0933 30.1441 47.1785 30.1441C43.2637 30.1441 40.5233 33.0802 40.5233 37.256C40.5233 45.2161 48.6792 45.7381 48.6792 50.5664C48.6792 55.3947 48.1572 53.5025 47.1132 53.5025C44.9601 53.5025 44.8948 51.7408 44.8948 49.1962H40.1318C39.9361 54.3507 42.4807 57.5478 47.048 57.5478C51.6153 57.5478 53.9642 56.6343 53.8337 50.1749C53.7032 42.802 46.0693 41.6928 45.3516 36.8645H45.2211ZM55.7258 57.0911H61.0108V45.9339H65.1866V41.3013H61.0108V34.4504H66.8178V30.3398H55.7258V57.0911ZM14.7507 110.202C17.3606 110.202 18.6656 108.832 18.6656 106.418V104.395H16.1862V106.548C16.1862 107.657 15.6642 107.984 14.816 107.984C13.9678 107.984 13.4458 107.592 13.4458 106.548V98.3924C13.4458 97.2832 13.9678 96.8917 14.816 96.8917C15.6642 96.8917 16.1862 97.2832 16.1862 98.3924V100.024H18.6656V98.5881C18.6656 96.174 17.2954 94.8038 14.7507 94.8038C12.2061 94.8038 10.8359 96.174 10.8359 98.5881V106.418C10.8359 108.832 12.2061 110.202 14.7507 110.202ZM27.6696 107.918H23.1024V103.482H26.6909V101.329H23.1024V97.1527H27.6696V94.9995H20.4925V110.072H27.6696V107.918ZM32.1717 110.072H29.5618V94.9995H33.5419C36.2822 94.9995 37.4567 96.174 37.4567 98.4576V99.6321C37.4567 101.198 36.9347 102.177 35.7603 102.699C37.0652 103.221 37.5219 104.33 37.5219 105.961V108.31C37.5219 109.028 37.5219 109.615 37.7829 110.137H35.1078C34.9773 109.745 34.8468 109.484 34.8468 108.31V105.961C34.8468 104.591 34.3248 104.069 33.1504 104.069H32.2369V110.202L32.1717 110.072ZM32.1717 101.785H33.2156C34.1943 101.785 34.7816 101.394 34.7816 100.219V98.7186C34.7816 97.6094 34.3901 97.1527 33.4114 97.1527H32.1717V101.785ZM41.3715 110.072H43.9814V97.1527H46.7218V94.9995H38.5659V97.1527H41.3063V110.072H41.3715ZM50.7671 94.9343H48.1572V110.006H50.7671V94.9343ZM55.5953 103.808H58.9882V101.655H55.5953V97.0875H59.9016V94.9343H52.9202V110.006H55.5301V103.743L55.5953 103.808ZM64.0774 94.9343H61.4676V110.006H64.0774V94.9343ZM73.4077 107.918H68.8405V103.482H72.429V101.329H68.8405V97.1527H73.4077V94.9995H66.2306V110.072H73.4077V107.918ZM79.4105 110.072H75.2347V94.9995H79.4105C82.0203 94.9995 83.3253 96.3045 83.3253 98.7186V106.353C83.3253 108.767 82.0203 110.072 79.4105 110.072ZM79.3452 107.918C80.1934 107.918 80.7154 107.527 80.7154 106.483V98.6534C80.7154 97.5442 80.1934 97.218 79.3452 97.218H77.8445V107.984H79.3452V107.918ZM64.9909 56.3081H65.5129V53.2415H66.3611V52.7195H64.0774V53.2415H64.9256V56.3081H64.9909ZM69.3624 56.3081H69.8844L69.6887 52.7195H68.971L68.5795 54.155C68.449 54.6117 68.3837 55.0032 68.2532 55.3947C68.188 55.0032 68.0575 54.5465 67.9922 54.155L67.6008 52.7195H66.883L66.6873 56.3081H67.2093V54.8727C67.2745 54.3507 67.3398 53.8287 67.3398 53.3068C67.405 53.7635 67.5355 54.2202 67.666 54.7422L68.0575 56.3081H68.449L68.9057 54.7422C69.0362 54.2855 69.1667 53.8287 69.2319 53.372C69.2319 53.894 69.2319 54.4159 69.2319 54.8727V56.3734L69.3624 56.3081Z" id="Vector"></path>
</svg>
