<svg xmlns="http://www.w3.org/2000/svg" fill="none" viewBox="0 0 237 60" height="60" width="237">
<g clip-path="url(#clip0_5894_7520)">
<path fill="#50000B" d="M212.881 0.826172V59.1754H237V49.2953H222.773V34.1588H231.945V24.2788H222.773V10.7062H237V0.826172H212.881Z"></path>
<path fill="#50000B" d="M193.307 0.826172V32.6445L183.302 0.826172H173.41V59.1754H183.302V30.5903L192.245 59.1754H203.199V0.826172H193.307Z"></path>
<path fill="#50000B" d="M154.16 0.826172V46.2792C154.16 48.3955 152.439 50.1145 150.322 50.1145C148.204 50.1145 146.484 48.3955 146.484 46.2792V0.826172H136.592V46.2792C136.592 53.8568 142.74 60.0008 150.322 60.0008C157.904 60.0008 164.052 53.8568 164.052 46.2792V0.826172H154.16Z"></path>
<path fill="#50000B" d="M128.439 0.826172H101.035V10.7062H109.791V59.1754H119.683V10.7062H128.439V0.826172Z"></path>
<path fill="#50000B" d="M96.5021 59.1754H86.2806L78.9716 31.4654C78.9716 31.4654 85.2622 30.3359 85.2622 23.6458V14.5291C85.2622 12.4128 83.5483 10.7 81.4369 10.7H77.6365V59.1754H67.7441V0.826172H81.4307C88.8081 0.826172 94.8068 6.64744 95.1235 13.9333H95.1545V23.472H95.1235C95.1235 29.2312 93.2357 33.3831 89.7892 36.0268L96.5083 59.1754H96.5021Z"></path>
<path fill="#50000B" d="M30.5098 13.7216V46.2847C30.5098 53.8622 36.6575 60.0062 44.2398 60.0062C51.8221 60.0062 57.9698 53.8622 57.9698 46.2847V13.7154C57.9698 6.13777 51.8283 0 44.246 0C36.6638 0 30.516 6.14398 30.516 13.7216M40.4083 46.2847V13.7216C40.4083 11.6053 42.1284 9.88622 44.246 9.88622H44.2584C46.3698 9.88622 48.0837 11.5991 48.0837 13.7091V46.2784C48.0837 48.3947 46.3636 50.1138 44.246 50.1138C42.1284 50.1138 40.4083 48.3947 40.4083 46.2784"></path>
<path fill="#50000B" d="M0 0.825195V59.1744H9.89233V34.1578H19.0581V24.2778H9.89233V10.7052H24.113V0.825195H0Z"></path>
</g>
<defs>
<clipPath id="clip0_5894_7520">
<rect fill="white" height="60" width="237"></rect>
</clipPath>
</defs>
</svg>
