<svg xmlns="http://www.w3.org/2000/svg" fill="none" viewBox="0 0 384 60" height="60" width="384">
<mask height="60" width="382" y="0" x="0" maskUnits="userSpaceOnUse" style="mask-type:luminance" id="mask0_5894_7531">
<path fill="white" d="M0 0H381.745V59.3339H0V0Z"></path>
</mask>
<g mask="url(#mask0_5894_7531)">
<path fill="#50000B" d="M32.1519 9.83077H32.8134V1.37385H-0.00195312V1.94C3.78266 5.01385 4.30112 5.91231 4.30112 9.26923V50.2108C4.30112 53.5677 3.78266 54.4631 -0.00195312 57.5385V58.1077H17.0196V57.5385C13.1888 54.6585 12.5273 53.5677 12.5273 50.3538V30.0692H16.2134C21.038 30.0692 21.8904 30.4 25.9996 35.6477H26.5688V22.3185H25.9996C21.8888 27.5615 21.038 27.8969 16.2134 27.8969H12.5273V3.44923H18.1534C20.4257 3.44923 22.3611 4.20461 32.1534 9.83231L32.1519 9.83077ZM45.0996 33.8954H33.7119L39.1073 17.4062C39.3565 17.9969 39.6073 18.6523 39.8765 19.4277L45.0996 33.8954ZM54.0611 38.72L44.1857 11.58H35.2457V12.1031C36.5027 13.2723 37.3104 14.1646 37.9504 15.1492L30.5657 37.5831C29.2442 41.6031 28.3919 42.88 25.0319 45.9985V46.5708H35.3888V46C32.5519 44.2523 31.6073 43.12 31.6073 41.4615C31.6073 40.6615 31.8442 39.5754 32.4596 37.7292L33.1088 35.7415H45.7642L46.9227 38.9523C47.635 40.9908 47.775 41.8415 47.775 42.5985C47.775 43.7769 46.9704 44.7708 44.798 45.9985V46.5708H59.2627V46C55.8565 43.2108 55.3381 42.2708 54.0611 38.72ZM75.795 9.83231H76.4596V1.65538C73.2904 1.08615 69.7442 0.613846 66.4827 0.613846C56.975 0.613846 52.2981 6.95231 52.2981 13.7108C52.2981 21.5108 57.3581 26.1908 63.8334 31.5846C70.8288 37.4462 74.9427 40.9908 74.9427 47.7492C74.9427 53.3292 71.2581 56.7338 66.3427 56.7338C62.0396 56.7338 58.635 55.0277 49.598 47.9369H48.8042L52.1073 57.16C56.0795 58.278 60.1854 58.8504 64.3119 58.8615C75.1365 58.8615 81.4242 52.2923 81.4242 43.1662C81.4242 34.7508 76.5057 30.4492 69.5057 24.7754C63.0765 19.5692 58.6796 15.3662 58.6796 9.31385C58.6796 5.38923 61.2811 2.69538 65.3011 2.69538C68.0904 2.69538 70.0304 3.78154 75.795 9.83231ZM117.45 9.83231H118.109V1.36923H79.4381V9.83077H80.0965C89.2227 4.06615 91.0688 3.30462 93.195 3.30462H94.6627V50.3508C94.6627 53.5646 93.9981 54.6554 90.1673 57.5354V58.1046H107.378V57.5354C103.547 54.6554 102.884 53.5646 102.884 50.3508V3.30769H104.353C106.477 3.30769 108.323 4.06923 117.45 9.83385V9.83231ZM166.77 8.32308H167.438V1.04C163.607 0.470769 158.689 0 154.2 0C134.103 0 122.187 11.2077 122.187 29.7846C122.187 48.0369 133.581 59.3354 153.438 59.3354C158.592 59.3354 163.226 58.58 166.915 57.5846L168.377 49.5031H167.721C160.297 55.7908 156.986 57.2554 151.598 57.2554C136.749 57.2554 131.784 46.0477 131.784 29.4554C131.784 12.5754 136.749 2.26923 150.792 2.26923C155.28 2.26923 158.455 3.30615 166.77 8.32308ZM164.855 29.4554C164.855 38.8185 164.055 45.0077 157.29 45.0077C150.483 45.0077 149.724 38.8185 149.724 29.4538C149.724 20.0923 150.483 13.8985 157.29 13.8985C164.1 13.8985 164.855 20.0923 164.855 29.4554ZM172.892 29.4554C172.892 19.5692 167.03 12.1477 157.292 12.1477C147.553 12.1477 141.69 19.6246 141.69 29.4554C141.69 39.24 147.552 46.7554 157.29 46.7554C167.032 46.7554 172.892 39.24 172.892 29.4554ZM207.669 58.0061L224.5 58.1046V57.5354C220.718 54.4615 220.201 53.5662 220.201 50.2092V9.26769C220.201 5.91077 220.718 5.01231 224.501 1.98462V1.41846L212.587 1.32308L199.358 43.2308L185.827 1.37077H173.773V1.93846C176.046 3.91385 177.438 5.2 178.45 6.52154V46.1892C178.45 50.7738 177.884 52.62 173.626 57.5369V58.1062H187.106V57.5369C181.429 52.86 180.629 50.9677 180.629 46.1892V10.8954C180.721 11.1662 180.813 11.4215 180.906 11.7231L196.09 58.5785H196.749L211.969 10.3538V50.1615C211.969 53.52 211.45 54.4154 207.669 57.4431V58.0061ZM256.392 18.7262C256.392 29.3615 253.887 33.8046 245.753 33.8046H241.072V3.44923H244.38C253.364 3.44923 256.392 7.28 256.392 18.7262ZM265.183 18.3446C265.183 5.57846 256.247 1.37231 244.146 1.37231H228.546V1.93846C232.324 5.01231 232.843 5.91077 232.843 9.26769V50.2092C232.843 53.5662 232.324 54.4615 228.546 57.5369V58.1062H245.564V57.5369C241.732 54.6569 241.072 53.5662 241.072 50.3523V35.8846H245.512C256.201 35.8846 265.183 31.3431 265.183 18.3446ZM285.949 37.3985H269.892L277.801 8.80308C277.969 9.29077 278.133 9.81231 278.301 10.4L285.947 37.4L285.949 37.3985ZM381.746 1.93692V1.37385H368.937V1.94C372.387 5.01385 373.426 6.47846 373.426 8.70154C373.426 9.88308 373.143 10.8277 372.193 13.0046L364.84 30.2031L355.224 8.88769C354.466 7.23692 354.226 6.33538 354.226 5.48769C354.226 3.97538 355.081 3.12154 357.395 1.94V1.37231H329.03V1.93846C335.366 6.62154 336.22 8.46154 336.22 13.6185V46.2492L312.533 1.37077H300.757V1.93692C303.213 4.04462 304.638 5.36 305.864 6.98769V46.3262C305.864 50.6015 305.389 52.4615 301.998 57.5354C299.386 54.2615 298.817 52.6892 297.493 48.0338L284.117 1.37231H272.629V1.93846C274.435 3.52308 275.575 4.62154 276.429 5.90769L265.301 45.9569C263.693 51.7723 262.413 53.52 258.16 57.5369V58.1062H271.873V57.5369C267.947 54.5585 266.721 53.0462 266.721 50.4446C266.721 49.4062 266.958 47.9369 267.526 45.9569L269.303 39.5262H286.544L288.941 47.9877C289.695 50.6369 289.98 51.7723 289.98 52.8108C289.98 54.2754 289.372 55.2692 286.483 57.5369V58.1062H315.229V57.5369C308.887 52.86 308.041 51.0138 308.041 46.3292V10.5169C308.087 10.6123 308.133 10.6831 308.18 10.7815L333.192 58.1046H338.397V13.6185C338.397 8.91077 338.864 7.03846 342.133 1.96769C344.263 4.54462 345.613 6.71077 347.373 10.64L357.586 33.2046V50.3538C357.586 53.5662 356.921 54.6569 353.093 57.5369V58.1062H370.307V57.5369C366.473 54.6569 365.817 53.5662 365.817 50.3523V32.9492L374.321 13.1446C376.123 8.93692 377.49 6.95385 381.747 1.94L381.746 1.93692Z" clip-rule="evenodd" fill-rule="evenodd"></path>
</g>
</svg>
